<?xml version="1.0" encoding="UTF-8"?>
<svg width="23px" height="22px" viewBox="0 0 23 22" version="1.1" xmlns="http://www.w3.org/2000/svg" xmlns:xlink="http://www.w3.org/1999/xlink">
    <title>favorite icon on</title>
    <g id="Page-1" stroke="none" stroke-width="1" fill="none" fill-rule="evenodd">
        <g id="Icons" transform="translate(-141.000000, -479.000000)" fill="#E5425B" stroke="#FFFFFF">
            <path d="M144.252508,480.790112 C145.832749,479.759735 147.342861,479.357037 148.776172,479.544409 C150.071962,479.713803 151.317284,480.367694 152.500267,481.531712 C153.683052,480.367518 154.928213,479.713781 156.223828,479.544409 C157.657139,479.357037 159.167251,479.759735 160.747492,480.790112 C161.785827,481.467145 162.494904,482.315864 162.934463,483.261943 C163.414409,484.294947 163.572255,485.447404 163.47052,486.628319 C163.24508,489.245167 161.732356,492.004614 159.758101,493.819103 C157.454432,495.936349 155.138586,497.800238 152.810859,499.411145 C149.103546,497.089433 146.774907,495.228053 145.241899,493.819103 C143.267644,492.004614 141.75492,489.245167 141.52948,486.628319 C141.427745,485.447404 141.585591,484.294947 142.065537,483.261943 C142.505096,482.315864 143.214173,481.467145 144.252508,480.790112 Z" id="favorite-icon-on"></path>
        </g>
    </g>
</svg>