<?xml version="1.0" encoding="UTF-8"?>
<svg width="23px" height="22px" viewBox="0 0 23 22" version="1.1" xmlns="http://www.w3.org/2000/svg" xmlns:xlink="http://www.w3.org/1999/xlink">
    <title>favorite icon off</title>
    <g id="Page-1" stroke="none" stroke-width="1" fill="none" fill-rule="evenodd" fill-opacity="0.5">
        <g id="Icons" transform="translate(-173.000000, -479.000000)" fill="#FFFFFF" stroke="#FFFFFF">
            <path d="M176.252508,480.790112 C177.832749,479.759735 179.342861,479.357037 180.776172,479.544409 C182.071962,479.713803 183.317284,480.367694 184.500028,481.531948 C185.682884,480.367606 186.928125,479.713792 188.223828,479.544409 C189.657139,479.357037 191.167251,479.759735 192.747492,480.790112 C193.785827,481.467145 194.494904,482.315864 194.934463,483.261943 C195.414409,484.294947 195.572255,485.447404 195.47052,486.628319 C195.24508,489.245167 193.732356,492.004614 191.758101,493.819103 C189.454432,495.936349 187.138586,497.800238 184.810859,499.411145 C181.103546,497.089433 178.774907,495.228053 177.241899,493.819103 C175.267644,492.004614 173.75492,489.245167 173.52948,486.628319 C173.427745,485.447404 173.585591,484.294947 174.065537,483.261943 C174.505096,482.315864 175.214173,481.467145 176.252508,480.790112 Z" id="favorite-icon-off"></path>
        </g>
    </g>
</svg>