<?xml version="1.0" encoding="UTF-8"?>
<svg width="433px" height="84px" viewBox="0 0 433 84" version="1.1" xmlns="http://www.w3.org/2000/svg" xmlns:xlink="http://www.w3.org/1999/xlink">
    <title>header background</title>
    <defs>
        <rect id="path-1" x="0" y="0" width="419" height="70"></rect>
        <filter x="-2.7%" y="-13.6%" width="105.5%" height="132.9%" filterUnits="objectBoundingBox" id="filter-3">
            <feOffset dx="0" dy="2" in="SourceAlpha" result="shadowOffsetOuter1"></feOffset>
            <feGaussianBlur stdDeviation="3.5" in="shadowOffsetOuter1" result="shadowBlurOuter1"></feGaussianBlur>
            <feColorMatrix values="0 0 0 0 0   0 0 0 0 0   0 0 0 0 0  0 0 0 0.5 0" type="matrix" in="shadowBlurOuter1"></feColorMatrix>
        </filter>
    </defs>
    <g id="Page-1" stroke="none" stroke-width="1" fill="none" fill-rule="evenodd">
        <g id="Icons" transform="translate(-12.000000, -617.000000)">
            <g id="header-background" transform="translate(19.000000, 622.000000)">
                <mask id="mask-2" fill="white">
                    <use xlink:href="#path-1"></use>
                </mask>
                <g id="Rectangle">
                    <use fill="black" fill-opacity="1" filter="url(#filter-3)" xlink:href="#path-1"></use>
                    <use fill="#302B2C" fill-rule="evenodd" xlink:href="#path-1"></use>
                </g>
                <g id="Group-2" opacity="0.543201265" mask="url(#mask-2)" stroke="#5A5354" stroke-width="2.5">
                    <g transform="translate(-394.000000, -17.000000)" opacity="0.589448475">
                        <path d="M0,19.9982451 C36.5506606,19.9982451 45.9211794,0.00803208002 85.7857143,0.00803208002 C125.650249,0.00803208002 129.412673,19.9982451 171.571429,19.9982451 C213.730184,19.9982451 216.470503,0.00803208002 257.357143,0.00803208002 C298.243782,0.00803208002 302.866539,19.9982451 342.718818,19.9982451 C382.571098,19.9982451 387.953693,0.00803208002 428.928571,0.00803208002 C469.90345,0.00803208002 473.805586,19.9982451 514.714286,19.9982451 C555.622985,19.9982451 559.289816,0.00803208002 600.5,0.00803208002 C641.710184,0.00803208002 644.597568,19.9982451 686.285714,19.9982451 C727.97386,19.9982451 731.603925,0.00803208002 772.071429,0.00803208002 C812.538932,0.00803208002 814.252244,19.9982451 857.857143,19.9982451 C901.462042,19.9982451 901.322549,-0.463674092 943.642857,0.00803208002 C985.963165,0.479738252 987.171897,19.7823007 1029.42857,19.9982451 C1071.68525,20.2141895 1072.9771,0.429730277 1115.21429,0.00803208002 C1157.45148,-0.413666117 1169.79027,19.9982451 1201,19.9982451" id="Line"></path>
                        <path d="M0,31.9982451 C36.5506606,31.9982451 45.9211794,12.0080321 85.7857143,12.0080321 C125.650249,12.0080321 129.412673,31.9982451 171.571429,31.9982451 C213.730184,31.9982451 216.470503,12.0080321 257.357143,12.0080321 C298.243782,12.0080321 302.866539,31.9982451 342.718818,31.9982451 C382.571098,31.9982451 387.953693,12.0080321 428.928571,12.0080321 C469.90345,12.0080321 473.805586,31.9982451 514.714286,31.9982451 C555.622985,31.9982451 559.289816,12.0080321 600.5,12.0080321 C641.710184,12.0080321 644.597568,31.9982451 686.285714,31.9982451 C727.97386,31.9982451 731.603925,12.0080321 772.071429,12.0080321 C812.538932,12.0080321 814.252244,31.9982451 857.857143,31.9982451 C901.462042,31.9982451 901.322549,11.5363259 943.642857,12.0080321 C985.963165,12.4797383 987.171897,31.7823007 1029.42857,31.9982451 C1071.68525,32.2141895 1072.9771,12.4297303 1115.21429,12.0080321 C1157.45148,11.5863339 1169.79027,31.9982451 1201,31.9982451" id="Line-Copy"></path>
                        <path d="M0,43.9982451 C36.5506606,43.9982451 45.9211794,24.0080321 85.7857143,24.0080321 C125.650249,24.0080321 129.412673,43.9982451 171.571429,43.9982451 C213.730184,43.9982451 216.470503,24.0080321 257.357143,24.0080321 C298.243782,24.0080321 302.866539,43.9982451 342.718818,43.9982451 C382.571098,43.9982451 387.953693,24.0080321 428.928571,24.0080321 C469.90345,24.0080321 473.805586,43.9982451 514.714286,43.9982451 C555.622985,43.9982451 559.289816,24.0080321 600.5,24.0080321 C641.710184,24.0080321 644.597568,43.9982451 686.285714,43.9982451 C727.97386,43.9982451 731.603925,24.0080321 772.071429,24.0080321 C812.538932,24.0080321 814.252244,43.9982451 857.857143,43.9982451 C901.462042,43.9982451 901.322549,23.5363259 943.642857,24.0080321 C985.963165,24.4797383 987.171897,43.7823007 1029.42857,43.9982451 C1071.68525,44.2141895 1072.9771,24.4297303 1115.21429,24.0080321 C1157.45148,23.5863339 1169.79027,43.9982451 1201,43.9982451" id="Line-Copy-2"></path>
                        <path d="M0,55.9982451 C36.5506606,55.9982451 45.9211794,36.0080321 85.7857143,36.0080321 C125.650249,36.0080321 129.412673,55.9982451 171.571429,55.9982451 C213.730184,55.9982451 216.470503,36.0080321 257.357143,36.0080321 C298.243782,36.0080321 302.866539,55.9982451 342.718818,55.9982451 C382.571098,55.9982451 387.953693,36.0080321 428.928571,36.0080321 C469.90345,36.0080321 473.805586,55.9982451 514.714286,55.9982451 C555.622985,55.9982451 559.289816,36.0080321 600.5,36.0080321 C641.710184,36.0080321 644.597568,55.9982451 686.285714,55.9982451 C727.97386,55.9982451 731.603925,36.0080321 772.071429,36.0080321 C812.538932,36.0080321 814.252244,55.9982451 857.857143,55.9982451 C901.462042,55.9982451 901.322549,35.5363259 943.642857,36.0080321 C985.963165,36.4797383 987.171897,55.7823007 1029.42857,55.9982451 C1071.68525,56.2141895 1072.9771,36.4297303 1115.21429,36.0080321 C1157.45148,35.5863339 1169.79027,55.9982451 1201,55.9982451" id="Line-Copy-3"></path>
                        <path d="M0,67.9982451 C36.5506606,67.9982451 45.9211794,48.0080321 85.7857143,48.0080321 C125.650249,48.0080321 129.412673,67.9982451 171.571429,67.9982451 C213.730184,67.9982451 216.470503,48.0080321 257.357143,48.0080321 C298.243782,48.0080321 302.866539,67.9982451 342.718818,67.9982451 C382.571098,67.9982451 387.953693,48.0080321 428.928571,48.0080321 C469.90345,48.0080321 473.805586,67.9982451 514.714286,67.9982451 C555.622985,67.9982451 559.289816,48.0080321 600.5,48.0080321 C641.710184,48.0080321 644.597568,67.9982451 686.285714,67.9982451 C727.97386,67.9982451 731.603925,48.0080321 772.071429,48.0080321 C812.538932,48.0080321 814.252244,67.9982451 857.857143,67.9982451 C901.462042,67.9982451 901.322549,47.5363259 943.642857,48.0080321 C985.963165,48.4797383 987.171897,67.7823007 1029.42857,67.9982451 C1071.68525,68.2141895 1072.9771,48.4297303 1115.21429,48.0080321 C1157.45148,47.5863339 1169.79027,67.9982451 1201,67.9982451" id="Line-Copy-4"></path>
                        <path d="M0,79.9982451 C36.5506606,79.9982451 45.9211794,60.0080321 85.7857143,60.0080321 C125.650249,60.0080321 129.412673,79.9982451 171.571429,79.9982451 C213.730184,79.9982451 216.470503,60.0080321 257.357143,60.0080321 C298.243782,60.0080321 302.866539,79.9982451 342.718818,79.9982451 C382.571098,79.9982451 387.953693,60.0080321 428.928571,60.0080321 C469.90345,60.0080321 473.805586,79.9982451 514.714286,79.9982451 C555.622985,79.9982451 559.289816,60.0080321 600.5,60.0080321 C641.710184,60.0080321 644.597568,79.9982451 686.285714,79.9982451 C727.97386,79.9982451 731.603925,60.0080321 772.071429,60.0080321 C812.538932,60.0080321 814.252244,79.9982451 857.857143,79.9982451 C901.462042,79.9982451 901.322549,59.5363259 943.642857,60.0080321 C985.963165,60.4797383 987.171897,79.7823007 1029.42857,79.9982451 C1071.68525,80.2141895 1072.9771,60.4297303 1115.21429,60.0080321 C1157.45148,59.5863339 1169.79027,79.9982451 1201,79.9982451" id="Line-Copy-5"></path>
                        <path d="M0,91.9982451 C36.5506606,91.9982451 45.9211794,72.0080321 85.7857143,72.0080321 C125.650249,72.0080321 129.412673,91.9982451 171.571429,91.9982451 C213.730184,91.9982451 216.470503,72.0080321 257.357143,72.0080321 C298.243782,72.0080321 302.866539,91.9982451 342.718818,91.9982451 C382.571098,91.9982451 387.953693,72.0080321 428.928571,72.0080321 C469.90345,72.0080321 473.805586,91.9982451 514.714286,91.9982451 C555.622985,91.9982451 559.289816,72.0080321 600.5,72.0080321 C641.710184,72.0080321 644.597568,91.9982451 686.285714,91.9982451 C727.97386,91.9982451 731.603925,72.0080321 772.071429,72.0080321 C812.538932,72.0080321 814.252244,91.9982451 857.857143,91.9982451 C901.462042,91.9982451 901.322549,71.5363259 943.642857,72.0080321 C985.963165,72.4797383 987.171897,91.7823007 1029.42857,91.9982451 C1071.68525,92.2141895 1072.9771,72.4297303 1115.21429,72.0080321 C1157.45148,71.5863339 1169.79027,91.9982451 1201,91.9982451" id="Line-Copy-6"></path>
                        <path d="M0,103.998245 C36.5506606,103.998245 45.9211794,84.0080321 85.7857143,84.0080321 C125.650249,84.0080321 129.412673,103.998245 171.571429,103.998245 C213.730184,103.998245 216.470503,84.0080321 257.357143,84.0080321 C298.243782,84.0080321 302.866539,103.998245 342.718818,103.998245 C382.571098,103.998245 387.953693,84.0080321 428.928571,84.0080321 C469.90345,84.0080321 473.805586,103.998245 514.714286,103.998245 C555.622985,103.998245 559.289816,84.0080321 600.5,84.0080321 C641.710184,84.0080321 644.597568,103.998245 686.285714,103.998245 C727.97386,103.998245 731.603925,84.0080321 772.071429,84.0080321 C812.538932,84.0080321 814.252244,103.998245 857.857143,103.998245 C901.462042,103.998245 901.322549,83.5363259 943.642857,84.0080321 C985.963165,84.4797383 987.171897,103.782301 1029.42857,103.998245 C1071.68525,104.214189 1072.9771,84.4297303 1115.21429,84.0080321 C1157.45148,83.5863339 1169.79027,103.998245 1201,103.998245" id="Line-Copy-7"></path>
                    </g>
                </g>
            </g>
        </g>
    </g>
</svg>