<?xml version="1.0" encoding="UTF-8"?>
<svg width="340px" height="258px" viewBox="0 0 340 258" version="1.1" xmlns="http://www.w3.org/2000/svg" xmlns:xlink="http://www.w3.org/1999/xlink">
    <title>loading screen</title>
    <defs>
        <linearGradient x1="100%" y1="31.9358647%" x2="0%" y2="31.9358647%" id="linearGradient-1">
            <stop stop-color="#2F2F2F" offset="0%"></stop>
            <stop stop-color="#010101" offset="100%"></stop>
        </linearGradient>
        <linearGradient x1="100%" y1="46.9643803%" x2="0%" y2="46.9643803%" id="linearGradient-2">
            <stop stop-color="#BD5606" offset="0%"></stop>
            <stop stop-color="#C05208" offset="11.4686547%"></stop>
            <stop stop-color="#F9AB19" offset="31.402439%"></stop>
            <stop stop-color="#FFCF23" offset="74.7737233%"></stop>
            <stop stop-color="#C17900" offset="100%"></stop>
        </linearGradient>
        <linearGradient x1="0%" y1="50%" x2="100%" y2="50%" id="linearGradient-3">
            <stop stop-color="#050505" offset="0%"></stop>
            <stop stop-color="#3D3D3D" offset="33.8900862%"></stop>
            <stop stop-color="#B8B8B8" offset="43.9587823%"></stop>
            <stop stop-color="#C7C7C7" offset="59.9093032%"></stop>
            <stop stop-color="#000000" offset="72.5866559%"></stop>
            <stop stop-color="#0C0C0C" offset="100%"></stop>
        </linearGradient>
        <linearGradient x1="0%" y1="50%" x2="100%" y2="50%" id="linearGradient-4">
            <stop stop-color="#050505" offset="0%"></stop>
            <stop stop-color="#3D3D3D" offset="33.8900862%"></stop>
            <stop stop-color="#B8B8B8" offset="43.9587823%"></stop>
            <stop stop-color="#C7C7C7" offset="59.9093032%"></stop>
            <stop stop-color="#000000" offset="72.5866559%"></stop>
            <stop stop-color="#0C0C0C" offset="100%"></stop>
        </linearGradient>
    </defs>
    <g id="TDR-App-Design" stroke="none" stroke-width="1" fill="none" fill-rule="evenodd">
        <g id="Startup-Screen" transform="translate(-49.000000, -340.000000)">
            <g id="loading-screen" transform="translate(49.000000, 340.000000)">
                <g id="DarkRoomComLogo-Copy" transform="translate(0.084706, 0.000000)" fill="#1A1919">
                    <polygon id="Fill-1" points="128.286938 5.10929662 128.286938 27.5361345 122.055885 27.5361345 122.055885 5.10929662 115.651765 5.10929662 115.651765 -4.83959651e-15 134.927059 -4.83959651e-15 134.927059 5.10929662"></polygon>
                    <polygon id="Fill-2" points="139.95872 30.2897479 139.95872 20.6464848 136.75348 20.6464848 136.75348 30.2897479 132.173445 30.2897479 132.173445 8.26084034 136.75348 8.26084034 136.75348 17.3906363 139.95872 17.3906363 139.95872 8.26084034 144.564706 8.26084034 144.564706 30.2897479"></polygon>
                    <polygon id="Fill-3" points="147.318319 23.4057143 147.318319 4.13042017 156.955966 4.13042017 156.955966 7.51570688 151.833923 7.51570688 151.833923 11.9653307 156.665643 11.9653307 156.665643 15.3518579 151.833923 15.3518579 151.833923 19.9931369 156.955966 19.9931369 156.955966 23.4057143"></polygon>
                    <g id="Group-25" transform="translate(0.000000, 18.258487)">
                        <path d="M26.9761238,18.1794569 C26.9761238,18.0823261 27.0721249,16.4452463 26.7869177,15.4805386 C25.833431,11.7226106 21.7370733,12.0111742 20.8795877,12.0111742 L15.9266763,12.0111742 L15.9266763,56.5357834 L21.0697258,56.5357834 C22.7837649,56.5357834 23.0717682,56.4386525 24.0224588,56.1500889 C26.7869177,55.379643 26.9761238,53.0673621 26.9761238,50.7541382 L26.9761238,18.1794569 Z M40.3118888,63.4745121 C36.5967393,68.004772 30.5971363,68.2942786 25.3580858,68.2942786 L0.115387735,68.2942786 L0.115387735,0.25362201 L24.6907383,0.25362201 C25.1660836,0.25362201 29.4544436,0.25362201 32.2151743,0.83169223 C34.0252146,1.21550068 38.4077116,2.37164112 41.1684423,6.80571318 C42.6932754,9.21512495 43.3606229,11.6254797 43.3606229,17.2147492 L43.3606229,51.1379466 C43.3606229,55.379643 43.1686207,60.0051477 40.3118888,63.4745121 Z" id="Fill-4"></path>
                        <path d="M65.9831432,14.7015111 L62.1589439,40.0083503 L69.7271863,40.0083503 L65.9831432,14.7015111 Z M72.9940199,62.5766643 L71.0814543,49.6007325 L60.6452954,49.6007325 L58.6544376,62.5766643 L45.3503623,62.5766643 L56.7428039,5.67399691 L74.9056536,5.67399691 L86.2962312,62.5766643 L72.9940199,62.5766643 Z" id="Fill-6"></path>
                        <path d="M106.020543,19.8720805 C105.822017,18.3425048 104.705421,17.6757909 102.273704,17.6757909 L98.8549465,17.6757909 L98.8549465,28.449775 L102.338016,28.449775 C105.297273,28.449775 106.217206,27.3860503 106.217206,23.5951167 C106.217206,22.3324152 106.150098,20.669874 106.020543,19.8720805 L106.020543,19.8720805 Z M107.004788,56.5158857 L100.694812,36.4974932 L98.8549465,36.4974932 L98.8549465,56.5158857 L88.3386313,56.5158857 L88.3386313,9.5630044 L104.177881,9.5630044 C110.356438,9.5630044 113.710884,11.1604774 115.155561,14.6854798 C115.878832,16.4809867 116.206913,19.074287 116.206913,22.7973233 C116.206913,30.1132593 114.893655,32.8395252 110.356438,35.0358148 L118.178198,56.5158857 L107.004788,56.5158857 Z" id="Fill-8"></path>
                        <polygon id="Fill-10" points="143.861569 65.7419053 133.520479 40.5001344 133.520479 65.7419053 121.298513 65.7419053 121.298513 14.0861917 133.520479 14.0861917 133.520479 37.4994501 142.922995 14.0861917 155.5038 14.0861917 145.23541 38.524511 156.878573 65.7419053"></polygon>
                        <path d="M186.525578,15.1913148 C186.239439,12.9733358 184.621401,12.0114571 181.096389,12.0114571 L176.143478,12.0114571 L176.143478,27.6221821 L181.193322,27.6221821 C185.478886,27.6221821 186.811717,26.0822332 186.811717,20.5863226 C186.811717,18.7578101 186.71758,16.3474553 186.525578,15.1913148 L186.525578,15.1913148 Z M187.95441,68.2936185 L178.811004,39.2854325 L176.143478,39.2854325 L176.143478,68.2936185 L160.903536,68.2936185 L160.903536,0.253904915 L183.860848,0.253904915 C192.814116,0.253904915 197.671026,2.56618579 199.767206,7.67262991 C200.813898,10.2772465 201.289243,14.0351744 201.289243,19.4301821 C201.289243,30.0315939 199.385998,33.9847266 192.814116,37.1645843 L204.149703,68.2936185 L187.95441,68.2936185 Z" id="Fill-12"></path>
                        <path d="M228.234143,21.3209338 C228.234143,20.1063262 228.234143,19.9450701 228.071966,19.2972165 C227.431648,16.8661153 225.270225,16.7048592 223.270047,16.7048592 C223.029578,16.7048592 221.58863,16.6228166 220.548462,17.1895706 C218.626576,18.1627655 218.865181,21.1596777 218.865181,21.3209338 L218.865181,50.645974 C218.865181,52.91299 218.7058,55.5053473 223.510516,55.5053473 C223.750985,55.5053473 225.270225,55.5053473 226.312257,55.0187499 C228.071966,54.1294836 228.234143,52.347179 228.234143,50.645974 L228.234143,21.3209338 Z M238.881877,59.7979666 C236.320605,63.2022627 232.317452,65.5513213 223.829277,65.5513213 C218.7058,65.5513213 213.740772,65.0647238 209.738552,61.4991716 C209.019009,60.8513181 207.416816,59.3141982 206.456805,56.8010544 C205.49493,54.4529389 205.095081,52.2651364 205.095081,47.3237205 L205.095081,23.752035 C205.095081,19.7017714 205.416638,16.4615605 207.738373,12.9780509 C211.419037,7.47082399 217.424232,6.4976291 223.510516,6.4976291 C228.393523,6.4976291 233.277463,7.0643831 237.120303,10.4677362 C238.080314,11.3588885 239.841888,13.139307 240.882055,16.2182618 C241.843931,19.1359604 241.843931,22.05083 241.843931,25.0477421 L241.843931,46.9191656 C241.843931,51.6172828 241.763774,55.9099022 238.881877,59.7979666 L238.881877,59.7979666 Z" id="Fill-14"></path>
                        <path d="M264.231108,23.4988346 C264.231108,22.5162095 264.231108,22.3841869 264.101553,21.8598688 C263.585198,19.8917896 261.832945,19.76071 260.213043,19.76071 C260.019176,19.76071 258.85225,19.6956418 258.01061,20.1539487 C256.454087,20.9413689 256.649817,23.367755 256.649817,23.4988346 L256.649817,47.2355483 C256.649817,49.0725479 256.520262,51.1698207 260.408773,51.1698207 C260.601707,51.1698207 261.832945,51.1698207 262.677382,50.775639 C264.101553,50.055173 264.231108,48.612355 264.231108,47.2355483 L264.231108,23.4988346 Z M272.851635,54.6457861 C270.776892,57.3993996 267.537088,59.3005245 260.667883,59.3005245 C256.520262,59.3005245 252.502197,58.9072858 249.259596,56.0225928 C248.677065,55.4973316 247.380584,54.2516045 246.604187,52.2194 C245.825926,50.3182751 245.500641,48.5472868 245.500641,44.5470031 L245.500641,25.4650277 C245.500641,22.1870961 245.760682,19.5645622 247.639694,16.7449375 C250.622253,12.2854039 255.482891,11.4979837 260.408773,11.4979837 C264.360663,11.4979837 268.315349,11.9581766 271.425599,14.71179 C272.20386,15.432256 273.629896,16.876017 274.472469,19.3665284 C275.249798,21.7287892 275.249798,24.088221 275.249798,26.5146071 L275.249798,44.2197758 C275.249798,48.0229686 275.184555,51.498934 272.851635,54.6457861 L272.851635,54.6457861 Z" id="Fill-16"></path>
                        <polygon id="Fill-18" points="317.055296 68.2938071 317.055296 30.8644676 309.11703 68.2938071 298.195274 68.2938071 290.25794 30.8644676 290.25794 68.2938071 279.407951 68.2938071 279.407951 16.2769175 296.010549 16.2769175 303.658016 54.4418113 311.302686 16.2769175 328.125249 16.2769175 328.125249 68.2938071"></polygon>
                    </g>
                </g>
                <g id="Group-30" transform="translate(103.000000, 107.000000)">
                    <path d="M154.900751,23.2749176 C159.332103,23.2749176 162.924424,26.867238 162.924424,31.2985898 L162.924424,84.4619028 C162.924424,88.5050712 159.916106,91.9166209 155.904713,92.4225218 C144.366237,93.8777084 135.983183,97.7823972 130.755552,104.136588 C125.964287,109.960376 123.627207,117.50277 123.744312,126.76377 L123.755754,127.383716 C123.861045,131.730185 120.489743,135.352962 116.178487,135.589472 L115.831593,135.601694 L85.0040471,135.601694 L86.7977538,23.2749176 L154.900751,23.2749176 Z M100.451757,118.932627 L94.1116235,118.932627 L94.1116235,130.627508 L100.451757,130.627508 L100.451757,118.932627 Z M117.358781,118.932627 L111.018647,118.932627 L111.018647,130.627508 L117.358781,130.627508 L117.358781,118.932627 Z M100.451757,27.3227294 L94.1116235,27.3227294 L94.1116235,39.01761 L100.451757,39.01761 L100.451757,27.3227294 Z M117.358781,27.3227294 L111.018647,27.3227294 L111.018647,39.01761 L117.358781,39.01761 L117.358781,27.3227294 Z M136.379182,27.3227294 L130.039048,27.3227294 L130.039048,39.01761 L136.379182,39.01761 L136.379182,27.3227294 Z M153.286205,27.3227294 L146.946072,27.3227294 L146.946072,39.01761 L153.286205,39.01761 L153.286205,27.3227294 Z" id="Combined-Shape" fill="url(#linearGradient-1)"></path>
                    <rect id="Rectangle" fill="url(#linearGradient-2)" x="1.01195294" y="19.2271059" width="86.016" height="119.410447"></rect>
                    <text id="400" transform="translate(46.836706, 74.502024) rotate(-270.000000) translate(-46.836706, -74.502024) " font-family="Roboto-Bold, Roboto" font-size="41.4900706" font-weight="bold" letter-spacing="-2.52988234" fill="#000000">
                        <tspan x="14.8367059" y="88.5020235">400</tspan>
                    </text>
                    <rect id="Rectangle" stroke="#090909" stroke-width="1.01195294" fill="url(#linearGradient-3)" x="0" y="136.613647" width="88.0399059" height="13.1553882" rx="1.01195294"></rect>
                    <rect id="Rectangle-Copy-71" stroke="#090909" stroke-width="1.01195294" fill="url(#linearGradient-4)" x="24.2868706" y="0" width="38.4542118" height="13.1553882" rx="1.01195294"></rect>
                    <rect id="Rectangle-Copy-70" stroke="#090909" stroke-width="1.01195294" fill="url(#linearGradient-3)" x="0" y="8.09562353" width="88.0399059" height="13.1553882" rx="1.01195294"></rect>
                    <g id="Group-27" opacity="0.673804874" transform="translate(10.119529, 29.346635)" stroke="#000000" stroke-width="0.910757647">
                        <line x1="7.14731294" y1="50.0916706" x2="0.455378824" y2="47.8147765" id="Path-87-Copy-14"></line>
                        <line x1="7.14731294" y1="5.46454588" x2="0.455378824" y2="3.18765176" id="Path-87-Copy"></line>
                        <line x1="7.14731294" y1="52.8239435" x2="0.455378824" y2="50.5470494" id="Path-87-Copy-15"></line>
                        <line x1="7.14731294" y1="8.19681882" x2="3.43438855" y2="6.93351653" id="Path-87-Copy-2"></line>
                        <line x1="3.63777175" y1="9.7349895" x2="0.455378824" y2="8.65219765" id="Path-87-Copy-3"></line>
                        <line x1="3.63777175" y1="13.3780201" x2="0.455378824" y2="12.2952282" id="Path-87-Copy-4"></line>
                        <line x1="3.63777175" y1="84.4171166" x2="0.455378824" y2="83.3343247" id="Path-87-Copy-6"></line>
                        <line x1="3.63777175" y1="21.5748389" x2="0.455378824" y2="20.4920471" id="Path-87-Copy-5"></line>
                        <line x1="3.63777175" y1="92.6139354" x2="0.455378824" y2="91.5311435" id="Path-87-Copy-7"></line>
                        <line x1="3.63777175" y1="17.0210507" x2="0.455378824" y2="15.9382588" id="Path-87-Copy-35"></line>
                        <line x1="3.63777175" y1="88.0601471" x2="0.455378824" y2="86.9773553" id="Path-87-Copy-49"></line>
                        <line x1="3.63777175" y1="25.2178695" x2="0.455378824" y2="24.1350776" id="Path-87-Copy-37"></line>
                        <line x1="3.63777175" y1="96.256966" x2="0.455378824" y2="95.1741741" id="Path-87-Copy-51"></line>
                        <line x1="3.63777175" y1="33.4146883" x2="0.455378824" y2="32.3318965" id="Path-87-Copy-41"></line>
                        <line x1="4.09315058" y1="58.4605236" x2="0.910757647" y2="57.3777318" id="Path-87-Copy-65"></line>
                        <line x1="3.63777175" y1="29.7716577" x2="0.455378824" y2="28.6888659" id="Path-87-Copy-48"></line>
                        <line x1="4.09315058" y1="54.817493" x2="0.910757647" y2="53.7347012" id="Path-87-Copy-66"></line>
                        <line x1="3.63777175" y1="41.6115071" x2="0.455378824" y2="40.5287153" id="Path-87-Copy-44"></line>
                        <line x1="4.09315058" y1="66.6573424" x2="0.910757647" y2="65.5745506" id="Path-87-Copy-67"></line>
                        <line x1="4.09315058" y1="78.041813" x2="0.910757647" y2="76.9590212" id="Path-87-Copy-74"></line>
                        <line x1="3.63777175" y1="37.9684766" x2="0.455378824" y2="36.8856847" id="Path-87-Copy-42"></line>
                        <line x1="4.09315058" y1="63.0143119" x2="0.910757647" y2="61.93152" id="Path-87-Copy-68"></line>
                        <line x1="4.09315058" y1="74.3987824" x2="0.910757647" y2="73.3159906" id="Path-87-Copy-75"></line>
                        <line x1="3.63777175" y1="46.1652954" x2="0.455378824" y2="45.0825035" id="Path-87-Copy-45"></line>
                        <line x1="3.63777175" y1="19.7533236" x2="0.455378824" y2="18.6705318" id="Path-87-Copy-36"></line>
                        <line x1="3.63777175" y1="90.7924201" x2="0.455378824" y2="89.7096282" id="Path-87-Copy-56"></line>
                        <line x1="3.63777175" y1="27.9501424" x2="0.455378824" y2="26.8673506" id="Path-87-Copy-38"></line>
                        <line x1="3.63777175" y1="98.9892389" x2="0.455378824" y2="97.9064471" id="Path-87-Copy-57"></line>
                        <line x1="7.14731294" y1="40.9840941" x2="0.455378824" y2="38.7072" id="Path-87-Copy-12"></line>
                        <line x1="7.60269176" y1="66.0299294" x2="0.910757647" y2="63.7530353" id="Path-87-Copy-16"></line>
                        <line x1="7.60269176" y1="77.4144" x2="0.910757647" y2="75.1375059" id="Path-87-Copy-17"></line>
                        <line x1="0.455378824" y1="3.18765176" x2="0.455378824" y2="0.455378824" id="Path-87-Copy-28"></line>
                        <line x1="6.83068235" y1="5.00916706" x2="6.83068235" y2="2.27689412" id="Path-87-Copy-29"></line>
                        <line x1="4.09840941" y1="5.00916706" x2="4.09840941" y2="2.27689412" id="Path-87-Copy-30"></line>
                        <line x1="6.83068235" y1="10.4737129" x2="6.83068235" y2="7.74144" id="Path-87-Copy-31"></line>
                        <line x1="3.18765176" y1="9.56295529" x2="3.18765176" y2="6.83068235" id="Path-87-Copy-33"></line>
                        <line x1="0.455378824" y1="8.65219765" x2="0.455378824" y2="5.91992471" id="Path-87-Copy-32"></line>
                        <line x1="3.64303059" y1="19.1259106" x2="3.64303059" y2="13.6613647" id="Path-87-Copy-34"></line>
                        <line x1="3.64303059" y1="27.3227294" x2="3.64303059" y2="21.8581835" id="Path-87-Copy-39"></line>
                        <line x1="3.18765176" y1="45.9932612" x2="3.18765176" y2="40.5287153" id="Path-87-Copy-46"></line>
                        <line x1="0.455378824" y1="44.1717459" x2="0.455378824" y2="41.4394729" id="Path-87-Copy-47"></line>
                        <line x1="3.18765176" y1="37.7964424" x2="3.18765176" y2="32.3318965" id="Path-87-Copy-40"></line>
                        <line x1="0.455378824" y1="35.9749271" x2="0.455378824" y2="33.2426541" id="Path-87-Copy-43"></line>
                        <line x1="0.455378824" y1="31.4211388" x2="0.455378824" y2="28.6888659" id="Path-87-Copy-50"></line>
                        <line x1="3.64303059" y1="90.1650071" x2="3.64303059" y2="84.7004612" id="Path-87-Copy-58"></line>
                        <line x1="3.64303059" y1="98.3618259" x2="3.64303059" y2="92.89728" id="Path-87-Copy-59"></line>
                        <line x1="0.910757647" y1="56.4669741" x2="0.910757647" y2="53.7347012" id="Path-87-Copy-73"></line>
                        <line x1="3.64303059" y1="71.0390965" x2="3.64303059" y2="65.5745506" id="Path-87-Copy-69"></line>
                        <line x1="0.910757647" y1="69.2175812" x2="0.910757647" y2="66.4853082" id="Path-87-Copy-70"></line>
                        <line x1="3.64303059" y1="62.8422776" x2="3.64303059" y2="57.3777318" id="Path-87-Copy-71"></line>
                        <line x1="0.910757647" y1="61.0207624" x2="0.910757647" y2="58.2884894" id="Path-87-Copy-72"></line>
                        <line x1="3.64303059" y1="82.4235671" x2="3.64303059" y2="76.9590212" id="Path-87-Copy-76"></line>
                        <line x1="0.910757647" y1="80.6020518" x2="0.910757647" y2="77.8697788" id="Path-87-Copy-77"></line>
                        <line x1="3.64303059" y1="74.2267482" x2="3.64303059" y2="68.7622024" id="Path-87-Copy-78"></line>
                        <line x1="0.910757647" y1="72.4052329" x2="0.910757647" y2="69.67296" id="Path-87-Copy-79"></line>
                    </g>
                    <g id="Group-29" opacity="0.51953125" transform="translate(3.035859, 31.122494)" stroke="#000000">
                        <polyline id="Path-87-Copy-9" stroke-width="1.92271059" points="3.64303059 7.62917647 0 2.57138824 0 0.0415058824 4.04781176 0.545505882 4.04781176 2.77180235 0.161912471 7.12517647"></polyline>
                        <polyline id="Path-87-Copy-11" stroke-width="0.910757647" stroke-linejoin="round" points="3.03585882 11.1374118 0.0630559801 11.1374118 3.03585882 9.11350588 -5.37170308e-15 9.13554745"></polyline>
                    </g>
                    <line x1="5.56574118" y1="87.5339294" x2="5.56574118" y2="48.0677647" id="Path-87-Copy-80" stroke="#000000" stroke-width="0.910757647" opacity="0.493512835"></line>
                    <line x1="3.44064" y1="87.5339294" x2="3.44064" y2="48.0677647" id="Path-87-Copy-81" stroke="#000000" stroke-width="0.910757647" opacity="0.209030878"></line>
                </g>
            </g>
        </g>
    </g>
</svg>