<?xml version="1.0" encoding="UTF-8"?>
<svg width="177px" height="46px" viewBox="0 0 177 46" version="1.1" xmlns="http://www.w3.org/2000/svg" xmlns:xlink="http://www.w3.org/1999/xlink">
    <title>thedarkroom logo w</title>
    <defs>
        <filter x="-7.5%" y="-42.9%" width="115.1%" height="185.7%" filterUnits="objectBoundingBox" id="filter-1">
            <feOffset dx="2" dy="2" in="SourceAlpha" result="shadowOffsetOuter1"></feOffset>
            <feGaussianBlur stdDeviation="2" in="shadowOffsetOuter1" result="shadowBlurOuter1"></feGaussianBlur>
            <feColorMatrix values="0 0 0 0 0   0 0 0 0 0   0 0 0 0 0  0 0 0 0.5 0" type="matrix" in="shadowBlurOuter1" result="shadowMatrixOuter1"></feColorMatrix>
            <feMerge>
                <feMergeNode in="shadowMatrixOuter1"></feMergeNode>
                <feMergeNode in="SourceGraphic"></feMergeNode>
            </feMerge>
        </filter>
        <polygon id="path-2" points="0.134734389 0.30697638 17.3042103 0.30697638 17.3042103 26.4135734 0.134734389 26.4135734"></polygon>
        <polygon id="path-4" points="0.006771874 0.30393701 19.3486872 0.30393701 19.3486872 20.2624673 0.006771874 20.2624673"></polygon>
    </defs>
    <g id="Page-1" stroke="none" stroke-width="1" fill="none" fill-rule="evenodd">
        <g id="Icons" transform="translate(-196.000000, -294.000000)">
            <g id="thedarkroom-logo-w" filter="url(#filter-1)" transform="translate(205.000000, 303.000000)">
                <polygon id="Fill-1" fill="#FFFFFF" points="0 6 0 8.96842294 3.98667842 8.96842294 3.98667842 22 7.86600059 22 7.86600059 8.96842294 12 8.96842294 12 6"></polygon>
                <polygon id="Fill-2" fill="#FFFFFF" points="14.3980129 24 14.3980129 17.87106 12.5873271 17.87106 12.5873271 24 10 24 10 10 12.5873271 10 12.5873271 15.8022461 14.3980129 15.8022461 14.3980129 10 17 10 17 24"></polygon>
                <polygon id="Fill-3" fill="#FFFFFF" points="19 20 19 8 25 8 25 10.1075393 21.811228 10.1075393 21.811228 12.8776909 24.8192569 12.8776909 24.8192569 14.9860025 21.811228 14.9860025 21.811228 17.8754706 25 17.8754706 25 20"></polygon>
                <g id="Group-22" transform="translate(27.000000, 0.000000)">
                    <g id="Group-6">
                        <mask id="mask-3" fill="white">
                            <use xlink:href="#path-2"></use>
                        </mask>
                        <g id="Clip-5"></g>
                        <path d="M10.7991408,7.18499854 C10.7991408,7.14773007 10.8372557,6.51959359 10.7240211,6.14944173 C10.3454622,4.70755008 8.71910232,4.81826999 8.37865838,4.81826999 L6.41222459,4.81826999 L6.41222459,21.9020627 L8.45414812,21.9020627 C9.13466595,21.9020627 9.24901071,21.8647943 9.62645943,21.7540744 C10.7240211,21.4584594 10.7991408,20.5712528 10.7991408,19.6836844 L10.7991408,7.18499854 Z M16.0937841,24.5644062 C14.6187738,26.3026364 12.2367763,26.4137182 10.1567379,26.4137182 L0.134734389,26.4137182 L0.134734389,0.30697638 L9.89178367,0.30697638 C10.080508,0.30697638 11.7830978,0.30697638 12.8791792,0.528778031 C13.597812,0.676042748 15.3377765,1.11964605 16.433858,2.82096964 C17.0392561,3.74544472 17.3042103,4.67028162 17.3042103,6.81484668 L17.3042103,19.8309491 C17.3042103,21.4584594 17.2279805,23.2332345 16.0937841,24.5644062 L16.0937841,24.5644062 Z" id="Fill-4" fill="#FFFFFF" mask="url(#mask-3)"></path>
                    </g>
                    <path d="M26.2859356,5.85057034 L24.7676296,15.5606341 L27.7724174,15.5606341 L26.2859356,5.85057034 Z M29.0694348,24.2199443 L28.3100968,19.2411666 L24.166672,19.2411666 L23.37625,24.2199443 L18.0941883,24.2199443 L22.6172821,2.38677392 L29.8284028,2.38677392 L34.3507564,24.2199443 L29.0694348,24.2199443 Z" id="Fill-7" fill="#FFFFFF"></path>
                    <path d="M42.1818181,7.83448298 C42.102998,7.24759509 41.6596808,6.99178144 40.6942261,6.99178144 L39.336891,6.99178144 L39.336891,11.1256866 L40.7197594,11.1256866 C41.8946611,11.1256866 42.2598982,10.7175426 42.2598982,9.26298693 C42.2598982,8.77849686 42.2332548,8.14059097 42.1818181,7.83448298 L42.1818181,7.83448298 Z M42.5725886,21.8944643 L40.0673652,14.2135419 L39.336891,14.2135419 L39.336891,21.8944643 L35.1616421,21.8944643 L35.1616421,3.8789599 L41.4502337,3.8789599 C43.9032803,3.8789599 45.2350822,4.49189954 45.8086562,5.8440574 C46.0958133,6.53334312 46.2260701,7.52837499 46.2260701,8.95687894 C46.2260701,11.7639543 45.7046728,12.8100042 43.9032803,13.6527057 L47.0087211,21.8944643 L42.5725886,21.8944643 Z" id="Fill-9" fill="#FFFFFF"></path>
                    <polygon id="Fill-11" fill="#FFFFFF" points="57.2056832 25.4344259 53.1000033 15.7493284 53.1000033 25.4344259 48.247567 25.4344259 48.247567 5.61447641 53.1000033 5.61447641 53.1000033 14.597986 56.8330451 5.61447641 61.8279497 5.61447641 57.7511336 14.9909332 62.3737702 25.4344259"></polygon>
                    <path d="M74.1443973,6.03850472 C74.0307927,5.18748109 73.3883898,4.81841472 71.9888691,4.81841472 L70.0224354,4.81841472 L70.0224354,10.8081448 L72.0269841,10.8081448 C73.7288337,10.8081448 74.258002,10.2172768 74.258002,8.10889468 C74.258002,7.40694492 74.2206272,6.48210802 74.1443973,6.03850472 L74.1443973,6.03850472 Z M74.7116806,26.4135011 L71.081512,15.2832554 L70.0224354,15.2832554 L70.0224354,26.4135011 L63.9717844,26.4135011 L63.9717844,0.307121112 L73.0864308,0.307121112 C76.6411096,0.307121112 78.5694285,1.19432772 79.4016659,3.15363594 C79.8172295,4.15300977 80.0059539,5.59490142 80.0059539,7.66492955 C80.0059539,11.7326199 79.2503163,13.2494103 76.6411096,14.4695003 L81.1416304,26.4135011 L74.7116806,26.4135011 Z" id="Fill-13" fill="#FFFFFF"></path>
                    <path d="M90.7037386,8.39036206 C90.7037386,7.92432532 90.7037386,7.86245242 90.6393502,7.61387537 C90.3851274,6.68107821 89.5269867,6.61920532 88.7328642,6.61920532 C88.6373919,6.61920532 88.065298,6.58772613 87.6523247,6.80518583 C86.8892863,7.17859415 86.9840185,8.32848917 86.9840185,8.39036206 L86.9840185,19.6421825 C86.9840185,20.5120213 86.9207403,21.5066913 88.8283365,21.5066913 C88.9238088,21.5066913 89.5269867,21.5066913 89.9407001,21.3199872 C90.6393502,20.9787817 90.7037386,20.2949234 90.7037386,19.6421825 L90.7037386,8.39036206 Z M94.9311642,23.1537405 C93.9142729,24.459946 92.3249178,25.3612639 88.9548928,25.3612639 C86.9207403,25.3612639 84.9494959,25.1745598 83.3605108,23.8064814 C83.0748339,23.5579043 82.4387218,22.9681218 82.0575727,22.0038455 C81.6756834,21.1028893 81.5169329,20.2634442 81.5169329,18.3678181 L81.5169329,9.32315922 C81.5169329,7.76910034 81.6445994,6.52585324 82.5663883,5.18925406 C84.0277069,3.07616818 86.4119246,2.70275986 88.8283365,2.70275986 C90.7670167,2.70275986 92.706067,2.92021955 94.2317739,4.2260632 C94.6129231,4.56799234 95.3123134,5.25112695 95.7252867,6.43250116 C96.1071759,7.55200248 96.1071759,8.67041831 96.1071759,9.82031333 L96.1071759,18.2122313 C96.1071759,20.0148672 96.0753518,21.6619163 94.9311642,23.1537405 L94.9311642,23.1537405 Z" id="Fill-15" fill="#FFFFFF"></path>
                    <path d="M104.995501,9.22604411 C104.995501,8.84901748 104.995501,8.79836132 104.944064,8.59718396 C104.739058,7.84204523 104.043368,7.79175089 103.400225,7.79175089 C103.323255,7.79175089 102.859955,7.76678463 102.525802,7.9426339 C101.907823,8.24476176 101.985533,9.17574977 101.985533,9.22604411 L101.985533,18.3336613 C101.985533,19.0385057 101.934096,19.8432151 103.477935,19.8432151 C103.554535,19.8432151 104.043368,19.8432151 104.378631,19.6919703 C104.944064,19.4155324 104.995501,18.8619328 104.995501,18.3336613 L104.995501,9.22604411 Z M108.418073,21.1769197 C107.594347,22.2334626 106.308061,22.9629115 103.580809,22.9629115 C101.934096,22.9629115 100.33882,22.8120284 99.0514239,21.7051912 C98.8201441,21.503652 98.3054077,21.0256748 97.9971579,20.2459317 C97.688168,19.5164829 97.5590213,18.8369665 97.5590213,17.3020846 L97.5590213,9.98045919 C97.5590213,8.72273889 97.6622647,7.71649029 98.4082809,6.63461927 C99.5924338,4.92352627 101.522233,4.62139841 103.477935,4.62139841 C105.046938,4.62139841 106.61705,4.79797134 107.8519,5.85451428 C108.16089,6.13095223 108.727063,6.68491361 109.061586,7.64050604 C109.370206,8.54688962 109.370206,9.45218772 109.370206,10.3831757 L109.370206,17.1765297 C109.370206,18.6357892 109.344302,19.9694937 108.418073,21.1769197 L108.418073,21.1769197 Z" id="Fill-17" fill="#FFFFFF"></path>
                    <g id="Group-21" transform="translate(111.014328, 6.151106)">
                        <mask id="mask-5" fill="white">
                            <use xlink:href="#path-4"></use>
                        </mask>
                        <g id="Clip-20"></g>
                        <polygon id="Fill-19" fill="#FFFFFF" mask="url(#mask-5)" points="14.953741 20.2624673 14.953741 5.90108177 11.8020442 20.2624673 7.46582457 20.2624673 4.31449784 5.90108177 4.31449784 20.2624673 0.006771874 20.2624673 0.006771874 0.30393701 6.59843262 0.30393701 9.63467449 14.9475498 12.6698062 0.30393701 19.3487982 0.30393701 19.3487982 20.2624673"></polygon>
                    </g>
                </g>
            </g>
        </g>
    </g>
</svg>