<?xml version="1.0" encoding="UTF-8"?>
<svg width="1915px" height="510px" viewBox="0 0 1915 510" version="1.1" xmlns="http://www.w3.org/2000/svg" xmlns:xlink="http://www.w3.org/1999/xlink">
    <title>Wavy lines</title>
    <g id="Page-1" stroke="none" stroke-width="1" fill="none" fill-rule="evenodd" opacity="0.5">
        <g id="Icons" transform="translate(-27.000000, -934.000000)" stroke="#FFFFFF" stroke-width="2.5">
            <g id="Wavy-lines" transform="translate(27.000000, 936.000000)">
                <path d="M4.54747351e-13,32.7905804 C58.25,32.7905804 73.1835938,0.0131699839 136.714844,0.0131699839 C200.246094,0.0131699839 206.242188,32.7905804 273.429688,32.7905804 C340.617188,32.7905804 344.984375,0.0131699839 410.144531,0.0131699839 C475.304688,0.0131699839 482.671875,32.7905804 546.183594,32.7905804 C609.695313,32.7905804 618.273438,0.0131699839 683.574219,0.0131699839 C748.875,0.0131699839 755.09375,32.7905804 820.289063,32.7905804 C885.484375,32.7905804 891.328125,0.0131699839 957.003906,0.0131699839 C1022.67969,0.0131699839 1027.28125,32.7905804 1093.71875,32.7905804 C1160.15625,32.7905804 1165.94141,0.0131699839 1230.43359,0.0131699839 C1294.92578,0.0131699839 1297.65625,32.7905804 1367.14844,32.7905804 C1436.64063,32.7905804 1436.41832,-0.760273841 1503.86328,0.0131699839 C1571.30824,0.786613809 1573.23457,32.4365023 1640.57813,32.7905804 C1707.92168,33.1446586 1709.98047,0.704617088 1777.29297,0.0131699839 C1844.60547,-0.67827712 1864.26953,32.7905804 1914.00781,32.7905804" id="Line" opacity="0.589448475"></path>
                <path d="M4.54747351e-13,275.79058 C58.25,275.79058 73.1835938,243.01317 136.714844,243.01317 C200.246094,243.01317 206.242188,275.79058 273.429688,275.79058 C340.617188,275.79058 344.984375,243.01317 410.144531,243.01317 C475.304688,243.01317 482.671875,275.79058 546.183594,275.79058 C609.695313,275.79058 618.273438,243.01317 683.574219,243.01317 C748.875,243.01317 755.09375,275.79058 820.289063,275.79058 C885.484375,275.79058 891.328125,243.01317 957.003906,243.01317 C1022.67969,243.01317 1027.28125,275.79058 1093.71875,275.79058 C1160.15625,275.79058 1165.94141,243.01317 1230.43359,243.01317 C1294.92578,243.01317 1297.65625,275.79058 1367.14844,275.79058 C1436.64063,275.79058 1436.41832,242.239726 1503.86328,243.01317 C1571.30824,243.786614 1573.23457,275.436502 1640.57813,275.79058 C1707.92168,276.144659 1709.98047,243.704617 1777.29297,243.01317 C1844.60547,242.321723 1864.26953,275.79058 1914.00781,275.79058" id="Line-Copy-16" opacity="0.589448475"></path>
                <path d="M4.54747351e-13,47.7905804 C58.25,47.7905804 73.1835938,15.01317 136.714844,15.01317 C200.246094,15.01317 206.242188,47.7905804 273.429688,47.7905804 C340.617188,47.7905804 344.984375,15.01317 410.144531,15.01317 C475.304688,15.01317 482.671875,47.7905804 546.183594,47.7905804 C609.695313,47.7905804 618.273438,15.01317 683.574219,15.01317 C748.875,15.01317 755.09375,47.7905804 820.289063,47.7905804 C885.484375,47.7905804 891.328125,15.01317 957.003906,15.01317 C1022.67969,15.01317 1027.28125,47.7905804 1093.71875,47.7905804 C1160.15625,47.7905804 1165.94141,15.01317 1230.43359,15.01317 C1294.92578,15.01317 1297.65625,47.7905804 1367.14844,47.7905804 C1436.64063,47.7905804 1436.41832,14.2397262 1503.86328,15.01317 C1571.30824,15.7866138 1573.23457,47.4365023 1640.57813,47.7905804 C1707.92168,48.1446586 1709.98047,15.7046171 1777.29297,15.01317 C1844.60547,14.3217229 1864.26953,47.7905804 1914.00781,47.7905804" id="Line-Copy" opacity="0.589448475"></path>
                <path d="M4.54747351e-13,290.79058 C58.25,290.79058 73.1835938,258.01317 136.714844,258.01317 C200.246094,258.01317 206.242188,290.79058 273.429688,290.79058 C340.617188,290.79058 344.984375,258.01317 410.144531,258.01317 C475.304688,258.01317 482.671875,290.79058 546.183594,290.79058 C609.695313,290.79058 618.273438,258.01317 683.574219,258.01317 C748.875,258.01317 755.09375,290.79058 820.289063,290.79058 C885.484375,290.79058 891.328125,258.01317 957.003906,258.01317 C1022.67969,258.01317 1027.28125,290.79058 1093.71875,290.79058 C1160.15625,290.79058 1165.94141,258.01317 1230.43359,258.01317 C1294.92578,258.01317 1297.65625,290.79058 1367.14844,290.79058 C1436.64063,290.79058 1436.41832,257.239726 1503.86328,258.01317 C1571.30824,258.786614 1573.23457,290.436502 1640.57813,290.79058 C1707.92168,291.144659 1709.98047,258.704617 1777.29297,258.01317 C1844.60547,257.321723 1864.26953,290.79058 1914.00781,290.79058" id="Line-Copy-17" opacity="0.589448475"></path>
                <path d="M4.54747351e-13,63.7905804 C58.25,63.7905804 73.1835938,31.01317 136.714844,31.01317 C200.246094,31.01317 206.242188,63.7905804 273.429688,63.7905804 C340.617188,63.7905804 344.984375,31.01317 410.144531,31.01317 C475.304688,31.01317 482.671875,63.7905804 546.183594,63.7905804 C609.695313,63.7905804 618.273438,31.01317 683.574219,31.01317 C748.875,31.01317 755.09375,63.7905804 820.289063,63.7905804 C885.484375,63.7905804 891.328125,31.01317 957.003906,31.01317 C1022.67969,31.01317 1027.28125,63.7905804 1093.71875,63.7905804 C1160.15625,63.7905804 1165.94141,31.01317 1230.43359,31.01317 C1294.92578,31.01317 1297.65625,63.7905804 1367.14844,63.7905804 C1436.64063,63.7905804 1436.41832,30.2397262 1503.86328,31.01317 C1571.30824,31.7866138 1573.23457,63.4365023 1640.57813,63.7905804 C1707.92168,64.1446586 1709.98047,31.7046171 1777.29297,31.01317 C1844.60547,30.3217229 1864.26953,63.7905804 1914.00781,63.7905804" id="Line-Copy-2" opacity="0.589448475"></path>
                <path d="M4.54747351e-13,306.79058 C58.25,306.79058 73.1835938,274.01317 136.714844,274.01317 C200.246094,274.01317 206.242188,306.79058 273.429688,306.79058 C340.617188,306.79058 344.984375,274.01317 410.144531,274.01317 C475.304688,274.01317 482.671875,306.79058 546.183594,306.79058 C609.695313,306.79058 618.273438,274.01317 683.574219,274.01317 C748.875,274.01317 755.09375,306.79058 820.289063,306.79058 C885.484375,306.79058 891.328125,274.01317 957.003906,274.01317 C1022.67969,274.01317 1027.28125,306.79058 1093.71875,306.79058 C1160.15625,306.79058 1165.94141,274.01317 1230.43359,274.01317 C1294.92578,274.01317 1297.65625,306.79058 1367.14844,306.79058 C1436.64063,306.79058 1436.41832,273.239726 1503.86328,274.01317 C1571.30824,274.786614 1573.23457,306.436502 1640.57813,306.79058 C1707.92168,307.144659 1709.98047,274.704617 1777.29297,274.01317 C1844.60547,273.321723 1864.26953,306.79058 1914.00781,306.79058" id="Line-Copy-18" opacity="0.589448475"></path>
                <path d="M4.54747351e-13,78.7905804 C58.25,78.7905804 73.1835938,46.01317 136.714844,46.01317 C200.246094,46.01317 206.242188,78.7905804 273.429688,78.7905804 C340.617188,78.7905804 344.984375,46.01317 410.144531,46.01317 C475.304688,46.01317 482.671875,78.7905804 546.183594,78.7905804 C609.695313,78.7905804 618.273438,46.01317 683.574219,46.01317 C748.875,46.01317 755.09375,78.7905804 820.289063,78.7905804 C885.484375,78.7905804 891.328125,46.01317 957.003906,46.01317 C1022.67969,46.01317 1027.28125,78.7905804 1093.71875,78.7905804 C1160.15625,78.7905804 1165.94141,46.01317 1230.43359,46.01317 C1294.92578,46.01317 1297.65625,78.7905804 1367.14844,78.7905804 C1436.64063,78.7905804 1436.41832,45.2397262 1503.86328,46.01317 C1571.30824,46.7866138 1573.23457,78.4365023 1640.57813,78.7905804 C1707.92168,79.1446586 1709.98047,46.7046171 1777.29297,46.01317 C1844.60547,45.3217229 1864.26953,78.7905804 1914.00781,78.7905804" id="Line-Copy-3" opacity="0.589448475"></path>
                <path d="M4.54747351e-13,321.79058 C58.25,321.79058 73.1835938,289.01317 136.714844,289.01317 C200.246094,289.01317 206.242188,321.79058 273.429688,321.79058 C340.617188,321.79058 344.984375,289.01317 410.144531,289.01317 C475.304688,289.01317 482.671875,321.79058 546.183594,321.79058 C609.695313,321.79058 618.273438,289.01317 683.574219,289.01317 C748.875,289.01317 755.09375,321.79058 820.289063,321.79058 C885.484375,321.79058 891.328125,289.01317 957.003906,289.01317 C1022.67969,289.01317 1027.28125,321.79058 1093.71875,321.79058 C1160.15625,321.79058 1165.94141,289.01317 1230.43359,289.01317 C1294.92578,289.01317 1297.65625,321.79058 1367.14844,321.79058 C1436.64063,321.79058 1436.41832,288.239726 1503.86328,289.01317 C1571.30824,289.786614 1573.23457,321.436502 1640.57813,321.79058 C1707.92168,322.144659 1709.98047,289.704617 1777.29297,289.01317 C1844.60547,288.321723 1864.26953,321.79058 1914.00781,321.79058" id="Line-Copy-19" opacity="0.589448475"></path>
                <path d="M4.54747351e-13,93.7905804 C58.25,93.7905804 73.1835938,61.01317 136.714844,61.01317 C200.246094,61.01317 206.242188,93.7905804 273.429688,93.7905804 C340.617188,93.7905804 344.984375,61.01317 410.144531,61.01317 C475.304688,61.01317 482.671875,93.7905804 546.183594,93.7905804 C609.695313,93.7905804 618.273438,61.01317 683.574219,61.01317 C748.875,61.01317 755.09375,93.7905804 820.289063,93.7905804 C885.484375,93.7905804 891.328125,61.01317 957.003906,61.01317 C1022.67969,61.01317 1027.28125,93.7905804 1093.71875,93.7905804 C1160.15625,93.7905804 1165.94141,61.01317 1230.43359,61.01317 C1294.92578,61.01317 1297.65625,93.7905804 1367.14844,93.7905804 C1436.64063,93.7905804 1436.41832,60.2397262 1503.86328,61.01317 C1571.30824,61.7866138 1573.23457,93.4365023 1640.57813,93.7905804 C1707.92168,94.1446586 1709.98047,61.7046171 1777.29297,61.01317 C1844.60547,60.3217229 1864.26953,93.7905804 1914.00781,93.7905804" id="Line-Copy-4" opacity="0.589448475"></path>
                <path d="M4.54747351e-13,336.79058 C58.25,336.79058 73.1835938,304.01317 136.714844,304.01317 C200.246094,304.01317 206.242188,336.79058 273.429688,336.79058 C340.617188,336.79058 344.984375,304.01317 410.144531,304.01317 C475.304688,304.01317 482.671875,336.79058 546.183594,336.79058 C609.695313,336.79058 618.273438,304.01317 683.574219,304.01317 C748.875,304.01317 755.09375,336.79058 820.289063,336.79058 C885.484375,336.79058 891.328125,304.01317 957.003906,304.01317 C1022.67969,304.01317 1027.28125,336.79058 1093.71875,336.79058 C1160.15625,336.79058 1165.94141,304.01317 1230.43359,304.01317 C1294.92578,304.01317 1297.65625,336.79058 1367.14844,336.79058 C1436.64063,336.79058 1436.41832,303.239726 1503.86328,304.01317 C1571.30824,304.786614 1573.23457,336.436502 1640.57813,336.79058 C1707.92168,337.144659 1709.98047,304.704617 1777.29297,304.01317 C1844.60547,303.321723 1864.26953,336.79058 1914.00781,336.79058" id="Line-Copy-20" opacity="0.589448475"></path>
                <path d="M4.54747351e-13,109.79058 C58.25,109.79058 73.1835938,77.01317 136.714844,77.01317 C200.246094,77.01317 206.242188,109.79058 273.429688,109.79058 C340.617188,109.79058 344.984375,77.01317 410.144531,77.01317 C475.304688,77.01317 482.671875,109.79058 546.183594,109.79058 C609.695313,109.79058 618.273438,77.01317 683.574219,77.01317 C748.875,77.01317 755.09375,109.79058 820.289063,109.79058 C885.484375,109.79058 891.328125,77.01317 957.003906,77.01317 C1022.67969,77.01317 1027.28125,109.79058 1093.71875,109.79058 C1160.15625,109.79058 1165.94141,77.01317 1230.43359,77.01317 C1294.92578,77.01317 1297.65625,109.79058 1367.14844,109.79058 C1436.64063,109.79058 1436.41832,76.2397262 1503.86328,77.01317 C1571.30824,77.7866138 1573.23457,109.436502 1640.57813,109.79058 C1707.92168,110.144659 1709.98047,77.7046171 1777.29297,77.01317 C1844.60547,76.3217229 1864.26953,109.79058 1914.00781,109.79058" id="Line-Copy-5" opacity="0.589448475"></path>
                <path d="M4.54747351e-13,352.79058 C58.25,352.79058 73.1835938,320.01317 136.714844,320.01317 C200.246094,320.01317 206.242188,352.79058 273.429688,352.79058 C340.617188,352.79058 344.984375,320.01317 410.144531,320.01317 C475.304688,320.01317 482.671875,352.79058 546.183594,352.79058 C609.695313,352.79058 618.273438,320.01317 683.574219,320.01317 C748.875,320.01317 755.09375,352.79058 820.289063,352.79058 C885.484375,352.79058 891.328125,320.01317 957.003906,320.01317 C1022.67969,320.01317 1027.28125,352.79058 1093.71875,352.79058 C1160.15625,352.79058 1165.94141,320.01317 1230.43359,320.01317 C1294.92578,320.01317 1297.65625,352.79058 1367.14844,352.79058 C1436.64063,352.79058 1436.41832,319.239726 1503.86328,320.01317 C1571.30824,320.786614 1573.23457,352.436502 1640.57813,352.79058 C1707.92168,353.144659 1709.98047,320.704617 1777.29297,320.01317 C1844.60547,319.321723 1864.26953,352.79058 1914.00781,352.79058" id="Line-Copy-21" opacity="0.589448475"></path>
                <path d="M4.54747351e-13,124.79058 C58.25,124.79058 73.1835938,92.01317 136.714844,92.01317 C200.246094,92.01317 206.242188,124.79058 273.429688,124.79058 C340.617188,124.79058 344.984375,92.01317 410.144531,92.01317 C475.304688,92.01317 482.671875,124.79058 546.183594,124.79058 C609.695313,124.79058 618.273438,92.01317 683.574219,92.01317 C748.875,92.01317 755.09375,124.79058 820.289063,124.79058 C885.484375,124.79058 891.328125,92.01317 957.003906,92.01317 C1022.67969,92.01317 1027.28125,124.79058 1093.71875,124.79058 C1160.15625,124.79058 1165.94141,92.01317 1230.43359,92.01317 C1294.92578,92.01317 1297.65625,124.79058 1367.14844,124.79058 C1436.64063,124.79058 1436.41832,91.2397262 1503.86328,92.01317 C1571.30824,92.7866138 1573.23457,124.436502 1640.57813,124.79058 C1707.92168,125.144659 1709.98047,92.7046171 1777.29297,92.01317 C1844.60547,91.3217229 1864.26953,124.79058 1914.00781,124.79058" id="Line-Copy-6" opacity="0.589448475"></path>
                <path d="M4.54747351e-13,367.79058 C58.25,367.79058 73.1835938,335.01317 136.714844,335.01317 C200.246094,335.01317 206.242188,367.79058 273.429688,367.79058 C340.617188,367.79058 344.984375,335.01317 410.144531,335.01317 C475.304688,335.01317 482.671875,367.79058 546.183594,367.79058 C609.695313,367.79058 618.273438,335.01317 683.574219,335.01317 C748.875,335.01317 755.09375,367.79058 820.289063,367.79058 C885.484375,367.79058 891.328125,335.01317 957.003906,335.01317 C1022.67969,335.01317 1027.28125,367.79058 1093.71875,367.79058 C1160.15625,367.79058 1165.94141,335.01317 1230.43359,335.01317 C1294.92578,335.01317 1297.65625,367.79058 1367.14844,367.79058 C1436.64063,367.79058 1436.41832,334.239726 1503.86328,335.01317 C1571.30824,335.786614 1573.23457,367.436502 1640.57813,367.79058 C1707.92168,368.144659 1709.98047,335.704617 1777.29297,335.01317 C1844.60547,334.321723 1864.26953,367.79058 1914.00781,367.79058" id="Line-Copy-22" opacity="0.589448475"></path>
                <path d="M4.54747351e-13,139.79058 C58.25,139.79058 73.1835938,107.01317 136.714844,107.01317 C200.246094,107.01317 206.242188,139.79058 273.429688,139.79058 C340.617188,139.79058 344.984375,107.01317 410.144531,107.01317 C475.304688,107.01317 482.671875,139.79058 546.183594,139.79058 C609.695313,139.79058 618.273438,107.01317 683.574219,107.01317 C748.875,107.01317 755.09375,139.79058 820.289063,139.79058 C885.484375,139.79058 891.328125,107.01317 957.003906,107.01317 C1022.67969,107.01317 1027.28125,139.79058 1093.71875,139.79058 C1160.15625,139.79058 1165.94141,107.01317 1230.43359,107.01317 C1294.92578,107.01317 1297.65625,139.79058 1367.14844,139.79058 C1436.64063,139.79058 1436.41832,106.239726 1503.86328,107.01317 C1571.30824,107.786614 1573.23457,139.436502 1640.57813,139.79058 C1707.92168,140.144659 1709.98047,107.704617 1777.29297,107.01317 C1844.60547,106.321723 1864.26953,139.79058 1914.00781,139.79058" id="Line-Copy-7" opacity="0.589448475"></path>
                <path d="M4.54747351e-13,382.79058 C58.25,382.79058 73.1835938,350.01317 136.714844,350.01317 C200.246094,350.01317 206.242188,382.79058 273.429688,382.79058 C340.617188,382.79058 344.984375,350.01317 410.144531,350.01317 C475.304688,350.01317 482.671875,382.79058 546.183594,382.79058 C609.695313,382.79058 618.273438,350.01317 683.574219,350.01317 C748.875,350.01317 755.09375,382.79058 820.289063,382.79058 C885.484375,382.79058 891.328125,350.01317 957.003906,350.01317 C1022.67969,350.01317 1027.28125,382.79058 1093.71875,382.79058 C1160.15625,382.79058 1165.94141,350.01317 1230.43359,350.01317 C1294.92578,350.01317 1297.65625,382.79058 1367.14844,382.79058 C1436.64063,382.79058 1436.41832,349.239726 1503.86328,350.01317 C1571.30824,350.786614 1573.23457,382.436502 1640.57813,382.79058 C1707.92168,383.144659 1709.98047,350.704617 1777.29297,350.01317 C1844.60547,349.321723 1864.26953,382.79058 1914.00781,382.79058" id="Line-Copy-23" opacity="0.589448475"></path>
                <path d="M4.54747351e-13,155.79058 C58.25,155.79058 73.1835938,123.01317 136.714844,123.01317 C200.246094,123.01317 206.242188,155.79058 273.429688,155.79058 C340.617188,155.79058 344.984375,123.01317 410.144531,123.01317 C475.304688,123.01317 482.671875,155.79058 546.183594,155.79058 C609.695313,155.79058 618.273438,123.01317 683.574219,123.01317 C748.875,123.01317 755.09375,155.79058 820.289063,155.79058 C885.484375,155.79058 891.328125,123.01317 957.003906,123.01317 C1022.67969,123.01317 1027.28125,155.79058 1093.71875,155.79058 C1160.15625,155.79058 1165.94141,123.01317 1230.43359,123.01317 C1294.92578,123.01317 1297.65625,155.79058 1367.14844,155.79058 C1436.64063,155.79058 1436.41832,122.239726 1503.86328,123.01317 C1571.30824,123.786614 1573.23457,155.436502 1640.57813,155.79058 C1707.92168,156.144659 1709.98047,123.704617 1777.29297,123.01317 C1844.60547,122.321723 1864.26953,155.79058 1914.00781,155.79058" id="Line-Copy-8" opacity="0.589448475"></path>
                <path d="M4.54747351e-13,398.79058 C58.25,398.79058 73.1835938,366.01317 136.714844,366.01317 C200.246094,366.01317 206.242188,398.79058 273.429688,398.79058 C340.617188,398.79058 344.984375,366.01317 410.144531,366.01317 C475.304688,366.01317 482.671875,398.79058 546.183594,398.79058 C609.695313,398.79058 618.273438,366.01317 683.574219,366.01317 C748.875,366.01317 755.09375,398.79058 820.289063,398.79058 C885.484375,398.79058 891.328125,366.01317 957.003906,366.01317 C1022.67969,366.01317 1027.28125,398.79058 1093.71875,398.79058 C1160.15625,398.79058 1165.94141,366.01317 1230.43359,366.01317 C1294.92578,366.01317 1297.65625,398.79058 1367.14844,398.79058 C1436.64063,398.79058 1436.41832,365.239726 1503.86328,366.01317 C1571.30824,366.786614 1573.23457,398.436502 1640.57813,398.79058 C1707.92168,399.144659 1709.98047,366.704617 1777.29297,366.01317 C1844.60547,365.321723 1864.26953,398.79058 1914.00781,398.79058" id="Line-Copy-24" opacity="0.589448475"></path>
                <path d="M4.54747351e-13,170.79058 C58.25,170.79058 73.1835938,138.01317 136.714844,138.01317 C200.246094,138.01317 206.242188,170.79058 273.429688,170.79058 C340.617188,170.79058 344.984375,138.01317 410.144531,138.01317 C475.304688,138.01317 482.671875,170.79058 546.183594,170.79058 C609.695313,170.79058 618.273438,138.01317 683.574219,138.01317 C748.875,138.01317 755.09375,170.79058 820.289063,170.79058 C885.484375,170.79058 891.328125,138.01317 957.003906,138.01317 C1022.67969,138.01317 1027.28125,170.79058 1093.71875,170.79058 C1160.15625,170.79058 1165.94141,138.01317 1230.43359,138.01317 C1294.92578,138.01317 1297.65625,170.79058 1367.14844,170.79058 C1436.64063,170.79058 1436.41832,137.239726 1503.86328,138.01317 C1571.30824,138.786614 1573.23457,170.436502 1640.57813,170.79058 C1707.92168,171.144659 1709.98047,138.704617 1777.29297,138.01317 C1844.60547,137.321723 1864.26953,170.79058 1914.00781,170.79058" id="Line-Copy-9" opacity="0.589448475"></path>
                <path d="M4.54747351e-13,413.79058 C58.25,413.79058 73.1835938,381.01317 136.714844,381.01317 C200.246094,381.01317 206.242188,413.79058 273.429688,413.79058 C340.617188,413.79058 344.984375,381.01317 410.144531,381.01317 C475.304688,381.01317 482.671875,413.79058 546.183594,413.79058 C609.695313,413.79058 618.273438,381.01317 683.574219,381.01317 C748.875,381.01317 755.09375,413.79058 820.289063,413.79058 C885.484375,413.79058 891.328125,381.01317 957.003906,381.01317 C1022.67969,381.01317 1027.28125,413.79058 1093.71875,413.79058 C1160.15625,413.79058 1165.94141,381.01317 1230.43359,381.01317 C1294.92578,381.01317 1297.65625,413.79058 1367.14844,413.79058 C1436.64063,413.79058 1436.41832,380.239726 1503.86328,381.01317 C1571.30824,381.786614 1573.23457,413.436502 1640.57813,413.79058 C1707.92168,414.144659 1709.98047,381.704617 1777.29297,381.01317 C1844.60547,380.321723 1864.26953,413.79058 1914.00781,413.79058" id="Line-Copy-25" opacity="0.589448475"></path>
                <path d="M4.54747351e-13,185.79058 C58.25,185.79058 73.1835938,153.01317 136.714844,153.01317 C200.246094,153.01317 206.242188,185.79058 273.429688,185.79058 C340.617188,185.79058 344.984375,153.01317 410.144531,153.01317 C475.304688,153.01317 482.671875,185.79058 546.183594,185.79058 C609.695313,185.79058 618.273438,153.01317 683.574219,153.01317 C748.875,153.01317 755.09375,185.79058 820.289063,185.79058 C885.484375,185.79058 891.328125,153.01317 957.003906,153.01317 C1022.67969,153.01317 1027.28125,185.79058 1093.71875,185.79058 C1160.15625,185.79058 1165.94141,153.01317 1230.43359,153.01317 C1294.92578,153.01317 1297.65625,185.79058 1367.14844,185.79058 C1436.64063,185.79058 1436.41832,152.239726 1503.86328,153.01317 C1571.30824,153.786614 1573.23457,185.436502 1640.57813,185.79058 C1707.92168,186.144659 1709.98047,153.704617 1777.29297,153.01317 C1844.60547,152.321723 1864.26953,185.79058 1914.00781,185.79058" id="Line-Copy-10" opacity="0.589448475"></path>
                <path d="M4.54747351e-13,428.79058 C58.25,428.79058 73.1835938,396.01317 136.714844,396.01317 C200.246094,396.01317 206.242188,428.79058 273.429688,428.79058 C340.617188,428.79058 344.984375,396.01317 410.144531,396.01317 C475.304688,396.01317 482.671875,428.79058 546.183594,428.79058 C609.695313,428.79058 618.273438,396.01317 683.574219,396.01317 C748.875,396.01317 755.09375,428.79058 820.289063,428.79058 C885.484375,428.79058 891.328125,396.01317 957.003906,396.01317 C1022.67969,396.01317 1027.28125,428.79058 1093.71875,428.79058 C1160.15625,428.79058 1165.94141,396.01317 1230.43359,396.01317 C1294.92578,396.01317 1297.65625,428.79058 1367.14844,428.79058 C1436.64063,428.79058 1436.41832,395.239726 1503.86328,396.01317 C1571.30824,396.786614 1573.23457,428.436502 1640.57813,428.79058 C1707.92168,429.144659 1709.98047,396.704617 1777.29297,396.01317 C1844.60547,395.321723 1864.26953,428.79058 1914.00781,428.79058" id="Line-Copy-26" opacity="0.589448475"></path>
                <path d="M4.54747351e-13,201.79058 C58.25,201.79058 73.1835938,169.01317 136.714844,169.01317 C200.246094,169.01317 206.242188,201.79058 273.429688,201.79058 C340.617188,201.79058 344.984375,169.01317 410.144531,169.01317 C475.304688,169.01317 482.671875,201.79058 546.183594,201.79058 C609.695313,201.79058 618.273438,169.01317 683.574219,169.01317 C748.875,169.01317 755.09375,201.79058 820.289063,201.79058 C885.484375,201.79058 891.328125,169.01317 957.003906,169.01317 C1022.67969,169.01317 1027.28125,201.79058 1093.71875,201.79058 C1160.15625,201.79058 1165.94141,169.01317 1230.43359,169.01317 C1294.92578,169.01317 1297.65625,201.79058 1367.14844,201.79058 C1436.64063,201.79058 1436.41832,168.239726 1503.86328,169.01317 C1571.30824,169.786614 1573.23457,201.436502 1640.57813,201.79058 C1707.92168,202.144659 1709.98047,169.704617 1777.29297,169.01317 C1844.60547,168.321723 1864.26953,201.79058 1914.00781,201.79058" id="Line-Copy-11" opacity="0.589448475"></path>
                <path d="M4.54747351e-13,444.79058 C58.25,444.79058 73.1835938,412.01317 136.714844,412.01317 C200.246094,412.01317 206.242188,444.79058 273.429688,444.79058 C340.617188,444.79058 344.984375,412.01317 410.144531,412.01317 C475.304688,412.01317 482.671875,444.79058 546.183594,444.79058 C609.695313,444.79058 618.273438,412.01317 683.574219,412.01317 C748.875,412.01317 755.09375,444.79058 820.289063,444.79058 C885.484375,444.79058 891.328125,412.01317 957.003906,412.01317 C1022.67969,412.01317 1027.28125,444.79058 1093.71875,444.79058 C1160.15625,444.79058 1165.94141,412.01317 1230.43359,412.01317 C1294.92578,412.01317 1297.65625,444.79058 1367.14844,444.79058 C1436.64063,444.79058 1436.41832,411.239726 1503.86328,412.01317 C1571.30824,412.786614 1573.23457,444.436502 1640.57813,444.79058 C1707.92168,445.144659 1709.98047,412.704617 1777.29297,412.01317 C1844.60547,411.321723 1864.26953,444.79058 1914.00781,444.79058" id="Line-Copy-27" opacity="0.589448475"></path>
                <path d="M4.54747351e-13,216.79058 C58.25,216.79058 73.1835938,184.01317 136.714844,184.01317 C200.246094,184.01317 206.242188,216.79058 273.429688,216.79058 C340.617188,216.79058 344.984375,184.01317 410.144531,184.01317 C475.304688,184.01317 482.671875,216.79058 546.183594,216.79058 C609.695313,216.79058 618.273438,184.01317 683.574219,184.01317 C748.875,184.01317 755.09375,216.79058 820.289063,216.79058 C885.484375,216.79058 891.328125,184.01317 957.003906,184.01317 C1022.67969,184.01317 1027.28125,216.79058 1093.71875,216.79058 C1160.15625,216.79058 1165.94141,184.01317 1230.43359,184.01317 C1294.92578,184.01317 1297.65625,216.79058 1367.14844,216.79058 C1436.64063,216.79058 1436.41832,183.239726 1503.86328,184.01317 C1571.30824,184.786614 1573.23457,216.436502 1640.57813,216.79058 C1707.92168,217.144659 1709.98047,184.704617 1777.29297,184.01317 C1844.60547,183.321723 1864.26953,216.79058 1914.00781,216.79058" id="Line-Copy-12" opacity="0.589448475"></path>
                <path d="M4.54747351e-13,459.79058 C58.25,459.79058 73.1835938,427.01317 136.714844,427.01317 C200.246094,427.01317 206.242188,459.79058 273.429688,459.79058 C340.617188,459.79058 344.984375,427.01317 410.144531,427.01317 C475.304688,427.01317 482.671875,459.79058 546.183594,459.79058 C609.695313,459.79058 618.273438,427.01317 683.574219,427.01317 C748.875,427.01317 755.09375,459.79058 820.289063,459.79058 C885.484375,459.79058 891.328125,427.01317 957.003906,427.01317 C1022.67969,427.01317 1027.28125,459.79058 1093.71875,459.79058 C1160.15625,459.79058 1165.94141,427.01317 1230.43359,427.01317 C1294.92578,427.01317 1297.65625,459.79058 1367.14844,459.79058 C1436.64063,459.79058 1436.41832,426.239726 1503.86328,427.01317 C1571.30824,427.786614 1573.23457,459.436502 1640.57813,459.79058 C1707.92168,460.144659 1709.98047,427.704617 1777.29297,427.01317 C1844.60547,426.321723 1864.26953,459.79058 1914.00781,459.79058" id="Line-Copy-28" opacity="0.589448475"></path>
                <path d="M4.54747351e-13,231.79058 C58.25,231.79058 73.1835938,199.01317 136.714844,199.01317 C200.246094,199.01317 206.242188,231.79058 273.429688,231.79058 C340.617188,231.79058 344.984375,199.01317 410.144531,199.01317 C475.304688,199.01317 482.671875,231.79058 546.183594,231.79058 C609.695313,231.79058 618.273438,199.01317 683.574219,199.01317 C748.875,199.01317 755.09375,231.79058 820.289063,231.79058 C885.484375,231.79058 891.328125,199.01317 957.003906,199.01317 C1022.67969,199.01317 1027.28125,231.79058 1093.71875,231.79058 C1160.15625,231.79058 1165.94141,199.01317 1230.43359,199.01317 C1294.92578,199.01317 1297.65625,231.79058 1367.14844,231.79058 C1436.64063,231.79058 1436.41832,198.239726 1503.86328,199.01317 C1571.30824,199.786614 1573.23457,231.436502 1640.57813,231.79058 C1707.92168,232.144659 1709.98047,199.704617 1777.29297,199.01317 C1844.60547,198.321723 1864.26953,231.79058 1914.00781,231.79058" id="Line-Copy-13" opacity="0.589448475"></path>
                <path d="M4.54747351e-13,474.79058 C58.25,474.79058 73.1835938,442.01317 136.714844,442.01317 C200.246094,442.01317 206.242188,474.79058 273.429688,474.79058 C340.617188,474.79058 344.984375,442.01317 410.144531,442.01317 C475.304688,442.01317 482.671875,474.79058 546.183594,474.79058 C609.695313,474.79058 618.273438,442.01317 683.574219,442.01317 C748.875,442.01317 755.09375,474.79058 820.289063,474.79058 C885.484375,474.79058 891.328125,442.01317 957.003906,442.01317 C1022.67969,442.01317 1027.28125,474.79058 1093.71875,474.79058 C1160.15625,474.79058 1165.94141,442.01317 1230.43359,442.01317 C1294.92578,442.01317 1297.65625,474.79058 1367.14844,474.79058 C1436.64063,474.79058 1436.41832,441.239726 1503.86328,442.01317 C1571.30824,442.786614 1573.23457,474.436502 1640.57813,474.79058 C1707.92168,475.144659 1709.98047,442.704617 1777.29297,442.01317 C1844.60547,441.321723 1864.26953,474.79058 1914.00781,474.79058" id="Line-Copy-29" opacity="0.589448475"></path>
                <path d="M4.54747351e-13,247.79058 C58.25,247.79058 73.1835938,215.01317 136.714844,215.01317 C200.246094,215.01317 206.242188,247.79058 273.429688,247.79058 C340.617188,247.79058 344.984375,215.01317 410.144531,215.01317 C475.304688,215.01317 482.671875,247.79058 546.183594,247.79058 C609.695313,247.79058 618.273438,215.01317 683.574219,215.01317 C748.875,215.01317 755.09375,247.79058 820.289063,247.79058 C885.484375,247.79058 891.328125,215.01317 957.003906,215.01317 C1022.67969,215.01317 1027.28125,247.79058 1093.71875,247.79058 C1160.15625,247.79058 1165.94141,215.01317 1230.43359,215.01317 C1294.92578,215.01317 1297.65625,247.79058 1367.14844,247.79058 C1436.64063,247.79058 1436.41832,214.239726 1503.86328,215.01317 C1571.30824,215.786614 1573.23457,247.436502 1640.57813,247.79058 C1707.92168,248.144659 1709.98047,215.704617 1777.29297,215.01317 C1844.60547,214.321723 1864.26953,247.79058 1914.00781,247.79058" id="Line-Copy-14" opacity="0.589448475"></path>
                <path d="M4.54747351e-13,490.79058 C58.25,490.79058 73.1835938,458.01317 136.714844,458.01317 C200.246094,458.01317 206.242188,490.79058 273.429688,490.79058 C340.617188,490.79058 344.984375,458.01317 410.144531,458.01317 C475.304688,458.01317 482.671875,490.79058 546.183594,490.79058 C609.695313,490.79058 618.273438,458.01317 683.574219,458.01317 C748.875,458.01317 755.09375,490.79058 820.289063,490.79058 C885.484375,490.79058 891.328125,458.01317 957.003906,458.01317 C1022.67969,458.01317 1027.28125,490.79058 1093.71875,490.79058 C1160.15625,490.79058 1165.94141,458.01317 1230.43359,458.01317 C1294.92578,458.01317 1297.65625,490.79058 1367.14844,490.79058 C1436.64063,490.79058 1436.41832,457.239726 1503.86328,458.01317 C1571.30824,458.786614 1573.23457,490.436502 1640.57813,490.79058 C1707.92168,491.144659 1709.98047,458.704617 1777.29297,458.01317 C1844.60547,457.321723 1864.26953,490.79058 1914.00781,490.79058" id="Line-Copy-30" opacity="0.589448475"></path>
                <path d="M4.54747351e-13,262.79058 C58.25,262.79058 73.1835938,230.01317 136.714844,230.01317 C200.246094,230.01317 206.242188,262.79058 273.429688,262.79058 C340.617188,262.79058 344.984375,230.01317 410.144531,230.01317 C475.304688,230.01317 482.671875,262.79058 546.183594,262.79058 C609.695313,262.79058 618.273438,230.01317 683.574219,230.01317 C748.875,230.01317 755.09375,262.79058 820.289063,262.79058 C885.484375,262.79058 891.328125,230.01317 957.003906,230.01317 C1022.67969,230.01317 1027.28125,262.79058 1093.71875,262.79058 C1160.15625,262.79058 1165.94141,230.01317 1230.43359,230.01317 C1294.92578,230.01317 1297.65625,262.79058 1367.14844,262.79058 C1436.64063,262.79058 1436.41832,229.239726 1503.86328,230.01317 C1571.30824,230.786614 1573.23457,262.436502 1640.57813,262.79058 C1707.92168,263.144659 1709.98047,230.704617 1777.29297,230.01317 C1844.60547,229.321723 1864.26953,262.79058 1914.00781,262.79058" id="Line-Copy-15" opacity="0.589448475"></path>
                <path d="M4.54747351e-13,505.79058 C58.25,505.79058 73.1835938,473.01317 136.714844,473.01317 C200.246094,473.01317 206.242188,505.79058 273.429688,505.79058 C340.617188,505.79058 344.984375,473.01317 410.144531,473.01317 C475.304688,473.01317 482.671875,505.79058 546.183594,505.79058 C609.695313,505.79058 618.273438,473.01317 683.574219,473.01317 C748.875,473.01317 755.09375,505.79058 820.289063,505.79058 C885.484375,505.79058 891.328125,473.01317 957.003906,473.01317 C1022.67969,473.01317 1027.28125,505.79058 1093.71875,505.79058 C1160.15625,505.79058 1165.94141,473.01317 1230.43359,473.01317 C1294.92578,473.01317 1297.65625,505.79058 1367.14844,505.79058 C1436.64063,505.79058 1436.41832,472.239726 1503.86328,473.01317 C1571.30824,473.786614 1573.23457,505.436502 1640.57813,505.79058 C1707.92168,506.144659 1709.98047,473.704617 1777.29297,473.01317 C1844.60547,472.321723 1864.26953,505.79058 1914.00781,505.79058" id="Line-Copy-31" opacity="0.589448475"></path>
            </g>
        </g>
    </g>
</svg>