<?xml version="1.0" encoding="UTF-8"?>
<svg width="34px" height="29px" viewBox="0 0 34 29" version="1.1" xmlns="http://www.w3.org/2000/svg" xmlns:xlink="http://www.w3.org/1999/xlink">
    <title>best lab seal</title>
    <g id="Page-1" stroke="none" stroke-width="1" fill="none" fill-rule="evenodd">
        <g id="Icons" transform="translate(-26.000000, -348.000000)" stroke="#7D7D7D" stroke-width="1.2">
            <g id="best-lab-seal" transform="translate(27.000000, 349.000000)">
                <polyline id="Path-5" points="13.5 16.8666667 13.5 6.5 20.5 6.5 20.5 9.5 16.5 9.5 16.5 11.5 18.5 11.5 18.5 14.5 16.5 14.5 16.5 16.8666667"></polyline>
                <polyline id="Path-6" points="11.3067708 7.5 9.5 7.5 9.5 16.8666667"></polyline>
                <polyline id="Path-6-Copy" transform="translate(23.550000, 12.183333) scale(-1, 1) translate(-23.550000, -12.183333) " points="24.5 7.5 22.6 7.5 22.6 16.8666667"></polyline>
                <path d="M28.7960506,17.1907214 C30.0859882,16.2670137 28.4710521,14.3593774 28.4420661,13.264735 C28.4094634,12.0335096 29.5238251,10.6204893 29.1426846,9.43693935 C28.8264899,8.45506493 27.5096111,7.99156021 26.9535394,7.09306977 C26.4354959,6.2560246 26.4896779,4.37274948 25.7634445,3.6465161 C24.8769162,2.7599878 23.7871363,3.10461733 22.590988,2.5678034 C21.3948396,2.03098947 20.9120895,0.446528997 19.9173301,0.179623066 C18.8350107,-0.110776283 17.6393797,0.909510143 16.5262254,0.903849709 C15.3483294,0.897860061 14.1279866,-0.0265499986 12.9839073,0.28628366 C11.929856,0.5745003 11.4724988,1.91367492 10.2344611,2.64322854 C8.99642335,3.37278216 7.57776311,2.99794634 6.7542506,3.82145885 C5.94985619,4.62585326 6.27125008,5.97393756 5.72227001,6.91183151 C5.1667379,7.86091915 3.47637661,9.09967679 3.18239191,10.1335626 C2.86996461,11.2323074 3.86844686,12.1100957 3.85141171,13.2437903 C3.83426056,14.3852047 2.07016665,16.0718281 3.39292327,17.4008572" id="Oval"></path>
                <path d="M6.40666539,23.2076948 C7.14066008,23.9416895 9.09933485,23.7264558 9.94632008,24.247787 C11.0235783,24.9108543 11.4107951,26.3601389 12.600486,26.6791884 C13.7312059,26.9824232 15.0165929,25.7971069 16.1794877,25.7895834 C17.2583311,25.7826037 18.5249985,26.8698492 19.5754351,26.5954096 C20.6244567,26.3213398 21.2916587,24.5819341 22.2585362,24.0411245 C23.277921,23.4709456 24.6810255,23.900276 25.5477019,23.0335996" id="Oval-Copy-31"></path>
                <rect id="Rectangle" x="3.50649351" y="16.8311688" width="25.2467532" height="6.31168831"></rect>
                <polygon id="Path-4" points="3.50649351 18.5844156 2.01738391 18.5844156 0 21.7402597 2.01738391 24.8961039 3.50649351 24.8961039"></polygon>
                <polygon id="Path-4-Copy" transform="translate(30.506494, 21.740260) scale(-1, 1) translate(-30.506494, -21.740260) " points="32.2597403 18.5844156 30.7706307 18.5844156 28.7532468 21.7402597 30.7706307 24.8961039 32.2597403 24.8961039"></polygon>
            </g>
        </g>
    </g>
</svg>