<?xml version="1.0" encoding="UTF-8"?>
<svg width="83px" height="26px" viewBox="0 0 83 26" version="1.1" xmlns="http://www.w3.org/2000/svg" xmlns:xlink="http://www.w3.org/1999/xlink">
    <title>fos icon w</title>
    <defs>
        <path d="M91.256523,307 C92.0178918,307 93.0057254,308.037918 92.9976765,308.538462 C92.9896275,309.039006 93.0057254,314.060371 92.9976765,314.692308 C92.9896275,315.324244 92.0834293,316.423077 91.0630615,316.423077 C90.0426936,316.423077 84.6129926,316.367089 83.2130566,316.367089 C81.8131206,316.367089 79.3950494,317.886076 79.3950494,319.658228 C79.3950494,321.43038 79.4553716,324.125122 79.4553716,324.884615 C79.4553716,325.644109 78.7323533,327 77.7142181,327 C77.0354612,327 56.4640552,326.974955 16,326.924864 L16,307.039132 C65.6634361,307.013044 90.7489437,307 91.256523,307 Z M77.9076796,321.615385 L75.1992186,321.615385 L75.1992186,325.461538 L77.9076796,325.461538 L77.9076796,321.615385 Z M34.9932761,309.633846 L20.4511622,309.633846 L20.4511622,323.923077 L23.7941769,323.923077 L23.7941769,318.495385 L29.8394618,318.495385 L29.8394618,315.892308 L23.7941769,315.892308 L23.7941769,312.126154 L34.9932761,312.126154 L34.9932761,309.633846 Z M49.8557621,309.633846 L39.2695489,309.633846 C37.8951916,309.633846 36.9572996,309.864613 36.4558449,310.326154 C35.9543902,310.787692 35.7036666,311.68307 35.7036666,313.012308 L35.7036666,313.012308 L35.7036666,320.544615 C35.7036666,321.873853 35.9543902,322.769228 36.4558449,323.230769 C36.9572996,323.69231 37.8951916,323.923077 39.2695489,323.923077 L39.2695489,323.923077 L49.8557621,323.923077 C51.2301195,323.923077 52.1680114,323.69231 52.6694662,323.230769 C53.1709209,322.769228 53.4216445,321.873853 53.4216445,320.544615 L53.4216445,320.544615 L53.4216445,313.012308 C53.4216445,311.68307 53.1709209,310.787692 52.6694662,310.326154 C52.1680114,309.864613 51.2301195,309.633846 49.8557621,309.633846 L49.8557621,309.633846 Z M67.086217,309.633846 L58.9236895,309.633846 C57.5493321,309.633846 56.6114402,309.864613 56.1099854,310.326154 C55.6085307,310.787692 55.3578071,311.68307 55.3578071,313.012308 L55.3578071,313.012308 L55.3578071,314.590769 C55.3578071,315.920007 55.6085307,316.815382 56.1099854,317.276923 C56.6114402,317.738464 57.5493321,317.969231 58.9236895,317.969231 L58.9236895,317.969231 L67.8941123,317.969231 L67.8941123,321.236923 L57.7257759,321.236923 L57.7257759,319.547692 L54.7727796,320.156923 L54.7727796,320.544615 C54.7727796,321.873853 55.0281462,322.769228 55.5388871,323.230769 C56.049628,323.69231 56.992163,323.923077 58.3665204,323.923077 L58.3665204,323.923077 L67.2533678,323.923077 C68.6277251,323.923077 69.5702601,323.69231 70.081001,323.230769 C70.5917419,322.769228 70.8471086,321.873853 70.8471086,320.544615 L70.8471086,320.544615 L70.8471086,318.578462 C70.8471086,317.249224 70.5917419,316.353848 70.081001,315.892308 C69.5702601,315.430767 68.6277251,315.2 67.2533678,315.2 L67.2533678,315.2 L58.282945,315.2 L58.282945,312.126154 L67.6991031,312.126154 L67.6991031,313.76 L70.6520994,313.067692 L70.6520994,312.763077 C70.6520994,311.563071 70.3874467,310.741541 69.8581334,310.298462 C69.3288201,309.855382 68.4048572,309.633846 67.086217,309.633846 L67.086217,309.633846 Z M50.0786298,312.181538 L50.0786298,321.236923 L39.0466813,321.236923 L39.0466813,312.181538 L50.0786298,312.181538 Z M91.4499845,308.923077 L88.7415235,308.923077 L88.7415235,312.769231 L91.4499845,312.769231 L91.4499845,308.923077 Z M87.1938315,308.923077 L84.4853705,308.923077 L84.4853705,312.769231 L87.1938315,312.769231 L87.1938315,308.923077 Z M82.5507555,308.923077 L79.8422946,308.923077 L79.8422946,312.769231 L82.5507555,312.769231 L82.5507555,308.923077 Z M77.9076796,308.923077 L75.1992186,308.923077 L75.1992186,312.769231 L77.9076796,312.769231 L77.9076796,308.923077 Z" id="path-1"></path>
        <filter x="-4.5%" y="-17.5%" width="114.3%" height="155.0%" filterUnits="objectBoundingBox" id="filter-2">
            <feOffset dx="2" dy="2" in="SourceAlpha" result="shadowOffsetOuter1"></feOffset>
            <feGaussianBlur stdDeviation="1.5" in="shadowOffsetOuter1" result="shadowBlurOuter1"></feGaussianBlur>
            <feColorMatrix values="0 0 0 0 0   0 0 0 0 0   0 0 0 0 0  0 0 0 0.5 0" type="matrix" in="shadowBlurOuter1"></feColorMatrix>
        </filter>
    </defs>
    <g id="Page-1" stroke="none" stroke-width="1" fill="none" fill-rule="evenodd">
        <g id="fos-icon-w" transform="translate(-15.000000, -306.000000)">
            <use fill="black" fill-opacity="1" filter="url(#filter-2)" xlink:href="#path-1"></use>
            <use fill="#fff" fill-rule="evenodd" xlink:href="#path-1"></use>
        </g>
    </g>
</svg>
