<?xml version="1.0" encoding="UTF-8"?>
<svg width="186px" height="165px" viewBox="0 0 186 165" version="1.1" xmlns="http://www.w3.org/2000/svg" xmlns:xlink="http://www.w3.org/1999/xlink">
    <title>Film Developing Promot</title>
    <defs>
        <linearGradient x1="50%" y1="52.0820707%" x2="43.895554%" y2="47.9179293%" id="linearGradient-1">
            <stop stop-color="#FFFFFF" offset="0%"></stop>
            <stop stop-color="#D8D8D8" offset="100%"></stop>
        </linearGradient>
        <linearGradient x1="73.2384946%" y1="55.5112765%" x2="36.8935901%" y2="36.5242441%" id="linearGradient-2">
            <stop stop-color="#FFFFFF" offset="0%"></stop>
            <stop stop-color="#D8D8D8" offset="100%"></stop>
        </linearGradient>
        <path d="M11.3932676,53.8940147 C17.3737467,53.8940147 22.2218829,52.255262 22.2218829,50.8399429 C22.2218829,50.4061195 22.3288061,33.8909302 22.5426525,1.29437484 L0.843122433,0.947014007 C0.686417982,34.096449 0.593594564,50.7168564 0.564652181,50.8082363 C0.564652181,52.2235555 5.41278842,53.8940147 11.3932676,53.8940147 Z" id="path-3"></path>
        <path d="M0.0538538296,10.2072417 C0.142017893,14.5843707 2.03537729,16.7928082 2.03537729,19.1631208 C2.03537729,21.5334333 1.01281869,26.2003474 1.04461556,28.8705623 C1.07641244,31.5407772 2.39020152,36.090621 10.4745571,36.0450936 C18.5589127,35.9995663 52.9371162,35.9793319 56.6746944,36.0450936 C60.4122726,36.1108554 63.8499484,33.2527498 63.903425,31.3398787 C63.9569015,29.4270076 62.4935226,21.25232 62.6004757,19.1631208 C62.7074289,17.0739215 65.9586594,12.45398 65.6804367,8.08335499 C65.402214,3.71272993 59.5761593,0.673237707 54.80446,0.587241612 C50.0327607,0.501245517 47.0221747,2.02243694 42.6681708,1.89814007 C38.3141668,1.77384319 11.3908852,1.69290569 7.23850236,1.89814007 C3.08611949,2.10337444 -0.0343102341,5.83011277 0.0538538296,10.2072417 Z" id="path-5"></path>
        <path d="M0.0538538296,10.2072417 C0.142017893,14.5843707 2.03537729,16.7928082 2.03537729,19.1631208 C2.03537729,21.5334333 1.01281869,26.2003474 1.04461556,28.8705623 C1.07641244,31.5407772 2.39020152,36.090621 10.4745571,36.0450936 C18.5589127,35.9995663 52.9371162,35.9793319 56.6746944,36.0450936 C60.4122726,36.1108554 63.8499484,33.2527498 63.903425,31.3398787 C63.9569015,29.4270076 62.4935226,21.25232 62.6004757,19.1631208 C62.7074289,17.0739215 65.9586594,12.45398 65.6804367,8.08335499 C65.402214,3.71272993 59.5761593,0.673237707 54.80446,0.587241612 C50.0327607,0.501245517 47.0221747,2.02243694 42.6681708,1.89814007 C38.3141668,1.77384319 11.3908852,1.69290569 7.23850236,1.89814007 C3.08611949,2.10337444 -0.0343102341,5.83011277 0.0538538296,10.2072417 Z" id="path-7"></path>
        <path d="M9.05475787,56.23432 C14.0555626,56.23432 18.1095157,55.0243209 18.1095157,53.5317113 C18.1095157,53.0741969 18.1989236,35.4843665 18.3777394,0.762220119 L0.232853474,0.395889951 C0.0776178246,34.8246978 0,52.5366382 0,53.5317113 C0,55.0243209 4.05395319,56.23432 9.05475787,56.23432 Z" id="path-9"></path>
        <path d="M21.6342889,2.76045856e-14 L21.6352236,29.7322688 C20.0641783,30.936978 16.0502735,31.8142208 11.26537,31.8974312 L10.5185239,31.9039056 C5.46371741,31.9039056 1.69241163,30.977332 9.85878059e-15,29.7322688 L0.00761800711,2.76045856e-14 L21.6342889,2.76045856e-14 Z" id="path-11"></path>
        <ellipse id="path-13" cx="11.8264478" cy="3.30040403" rx="11.8264478" ry="3.30040403"></ellipse>
        <polygon id="path-15" points="31.7135796 -2.13438921e-14 0 37.8063518 92.4977803 69.6324335 111.912318 22.8925284"></polygon>
        <filter x="-5.3%" y="-5.2%" width="109.8%" height="113.6%" filterUnits="objectBoundingBox" id="filter-16">
            <feMorphology radius="2.2904629" operator="dilate" in="SourceAlpha" result="shadowSpreadOuter1"></feMorphology>
            <feOffset dx="0" dy="1" in="shadowSpreadOuter1" result="shadowOffsetOuter1"></feOffset>
            <feGaussianBlur stdDeviation="0.5" in="shadowOffsetOuter1" result="shadowBlurOuter1"></feGaussianBlur>
            <feComposite in="shadowBlurOuter1" in2="SourceAlpha" operator="out" result="shadowBlurOuter1"></feComposite>
            <feColorMatrix values="0 0 0 0 0   0 0 0 0 0   0 0 0 0 0  0 0 0 0.5 0" type="matrix" in="shadowBlurOuter1"></feColorMatrix>
        </filter>
        <linearGradient x1="59.639338%" y1="40.5638151%" x2="44.6412736%" y2="58.2356455%" id="linearGradient-17">
            <stop stop-color="#39B8E7" offset="0%"></stop>
            <stop stop-color="#DCEA3E" offset="76.4938182%"></stop>
            <stop stop-color="#44D43B" offset="100%"></stop>
        </linearGradient>
        <polygon id="path-18" points="32.2008727 6 0 36.3573831 92.1867756 68 115 28.7186332"></polygon>
        <filter x="-5.5%" y="-5.7%" width="110.3%" height="115.0%" filterUnits="objectBoundingBox" id="filter-19">
            <feMorphology radius="2.2904629" operator="dilate" in="SourceAlpha" result="shadowSpreadOuter1"></feMorphology>
            <feOffset dx="0" dy="1" in="shadowSpreadOuter1" result="shadowOffsetOuter1"></feOffset>
            <feGaussianBlur stdDeviation="0.5" in="shadowOffsetOuter1" result="shadowBlurOuter1"></feGaussianBlur>
            <feComposite in="shadowBlurOuter1" in2="SourceAlpha" operator="out" result="shadowBlurOuter1"></feComposite>
            <feColorMatrix values="0 0 0 0 0   0 0 0 0 0   0 0 0 0 0  0 0 0 0.5 0" type="matrix" in="shadowBlurOuter1"></feColorMatrix>
        </filter>
        <linearGradient x1="59.639338%" y1="38.9804803%" x2="46.0762456%" y2="59.7003458%" id="linearGradient-20">
            <stop stop-color="#39B8E7" offset="0%"></stop>
            <stop stop-color="#D8D8D8" offset="100%"></stop>
        </linearGradient>
        <polygon id="path-21" points="45.4703828 0 12 33.2329153 105.010121 67 127 26.18313"></polygon>
        <filter x="-5.4%" y="-5.4%" width="110.0%" height="114.1%" filterUnits="objectBoundingBox" id="filter-22">
            <feMorphology radius="2.2904629" operator="dilate" in="SourceAlpha" result="shadowSpreadOuter1"></feMorphology>
            <feOffset dx="0" dy="1" in="shadowSpreadOuter1" result="shadowOffsetOuter1"></feOffset>
            <feGaussianBlur stdDeviation="0.5" in="shadowOffsetOuter1" result="shadowBlurOuter1"></feGaussianBlur>
            <feComposite in="shadowBlurOuter1" in2="SourceAlpha" operator="out" result="shadowBlurOuter1"></feComposite>
            <feColorMatrix values="0 0 0 0 0   0 0 0 0 0   0 0 0 0 0  0 0 0 0.5 0" type="matrix" in="shadowBlurOuter1"></feColorMatrix>
        </filter>
        <filter x="-6.8%" y="-11.5%" width="112.7%" height="123.0%" filterUnits="objectBoundingBox" id="filter-23">
            <feOffset dx="1" dy="1" in="SourceAlpha" result="shadowOffsetOuter1"></feOffset>
            <feGaussianBlur stdDeviation="0.5" in="shadowOffsetOuter1" result="shadowBlurOuter1"></feGaussianBlur>
            <feColorMatrix values="0 0 0 0 0   0 0 0 0 0   0 0 0 0 0  0 0 0 0.5 0" type="matrix" in="shadowBlurOuter1" result="shadowMatrixOuter1"></feColorMatrix>
            <feMerge>
                <feMergeNode in="shadowMatrixOuter1"></feMergeNode>
                <feMergeNode in="SourceGraphic"></feMergeNode>
            </feMerge>
        </filter>
        <polygon id="path-24" points="24.291318 0 117.874659 15.4126091 102.960712 60.6169959 0 37.5069087"></polygon>
        <linearGradient x1="53.7150109%" y1="45.6088706%" x2="45.2238631%" y2="52.995402%" id="linearGradient-26">
            <stop stop-color="#F19F7F" offset="0%"></stop>
            <stop stop-color="#F3CFBD" offset="100%"></stop>
        </linearGradient>
        <rect id="path-27" x="19" y="138" width="118" height="23" rx="10"></rect>
        <filter x="-2.5%" y="-13.0%" width="106.8%" height="134.8%" filterUnits="objectBoundingBox" id="filter-28">
            <feMorphology radius="0.5" operator="dilate" in="SourceAlpha" result="shadowSpreadOuter1"></feMorphology>
            <feOffset dx="1" dy="1" in="shadowSpreadOuter1" result="shadowOffsetOuter1"></feOffset>
            <feGaussianBlur stdDeviation="1" in="shadowOffsetOuter1" result="shadowBlurOuter1"></feGaussianBlur>
            <feComposite in="shadowBlurOuter1" in2="SourceAlpha" operator="out" result="shadowBlurOuter1"></feComposite>
            <feColorMatrix values="0 0 0 0 0   0 0 0 0 0   0 0 0 0 0  0 0 0 0.5 0" type="matrix" in="shadowBlurOuter1"></feColorMatrix>
        </filter>
        <path d="M21.6342889,2.76045856e-14 L21.6352236,29.7322688 C20.0641783,30.936978 16.0502735,31.8142208 11.26537,31.8974312 L10.5185239,31.9039056 C5.46371741,31.9039056 1.69241163,30.977332 9.85878059e-15,29.7322688 L0.00761800711,2.76045856e-14 L21.6342889,2.76045856e-14 Z" id="path-29"></path>
        <ellipse id="path-31" cx="11.8264478" cy="3.30040403" rx="11.8264478" ry="3.30040403"></ellipse>
    </defs>
    <g id="TDR-App-Design" stroke="none" stroke-width="1" fill="none" fill-rule="evenodd">
        <g id="Login-Copy-2" transform="translate(-123.000000, -713.000000)">
            <g id="Film-Developing-Promot" transform="translate(129.000000, 713.000000)">
                <polygon id="Path-120-Copy-2" fill="url(#linearGradient-1)" points="151.044202 67 179.5625 85.0722656 109.451172 84.5703125 91 69.9807848"></polygon>
                <polygon id="Path-120-Copy" fill="url(#linearGradient-2)" points="23.4055728 69 34.2104669 78.595421 18.4627166 86.2411626 1 71.9807848"></polygon>
                <g id="Group-46">
                    <g id="Group-35-Copy" transform="translate(1.000000, 16.000000)">
                        <g id="220-Film-Copy">
                            <g id="Group-13-Copy-2">
                                <path d="M11.7013306,57.9420007 C17.6120645,57.9420007 22.4036612,56.5263017 22.4036612,54.7799485 C22.4036612,54.3539595 22.4632327,53.6683446 22.5823758,52.7231037 L1.33801613,52.343113 C1.11200539,52.8034345 0.999000013,53.6157131 0.999000013,54.7799485 C0.999000013,56.5263017 5.79059662,57.9420007 11.7013306,57.9420007 Z" id="Oval-Copy-13" fill="#000000"></path>
                                <g id="Group-12" transform="translate(0.434348, 2.049986)">
                                    <mask id="mask-4" fill="white">
                                        <use xlink:href="#path-3"></use>
                                    </mask>
                                    <use id="Mask" fill="#FCCD00" xlink:href="#path-3"></use>
                                    <g mask="url(#mask-4)">
                                        <g transform="translate(-1.433348, 1.946014)">
                                            <path d="M12.6055461,14.6056398 C18.6065117,14.6056398 24.1647762,12.5932002 24.1647762,11.1723507 C24.1647762,10.5190729 27.9061483,0.801384211 24.2457498,2.5657314 C20.5853513,4.33007859 17.7887615,5.11201733 12.4338854,5.09397544 C7.07900924,5.07593356 4.82183356,4.71884959 1.57947365,2.37744331 C-1.66288625,0.036037033 1.63361867,9.23854509 1.63361867,10.6593946 C1.63361867,12.0802441 6.60458044,14.6056398 12.6055461,14.6056398 Z" id="Oval-Copy-15" stroke="none" fill="#59A6DF" fill-rule="evenodd"></path>
                                            <path d="M0.999000013,5.99400008 C4.27063093,7.63492429 7.54626158,8.48908905 10.825892,8.55649437" id="Path-33-Copy-3" stroke="#FFFFFF" stroke-width="1.99800003" fill="none" opacity="0.54952567"></path>
                                            <rect id="Rectangle" stroke="none" fill="#DAA300" fill-rule="evenodd" opacity="0.372070312" style="mix-blend-mode: multiply;" x="1.99800003" y="0" width="4.99500006" height="52.9470007"></rect>
                                            <rect id="Rectangle-Copy-20" stroke="none" fill="#FFFFFF" fill-rule="evenodd" opacity="0.304478237" x="18.9810002" y="0" width="6.99300009" height="52.9470007"></rect>
                                            <path d="M0.999000013,38.1674804 C2.82728501,39.9682101 6.71904158,40.8236319 12.6742697,40.7337458 C18.6294979,40.6438597 22.5212544,39.7884379 24.3495394,38.1674804" id="Path-33" stroke="#000000" stroke-width="0.999000013" fill="none"></path>
                                            <path d="M0.999000013,35.5672404 C2.82728501,37.3679701 6.71904158,38.2233919 12.6742697,38.1335058 C18.6294979,38.0436197 22.5212544,37.1881979 24.3495394,35.5672404" id="Path-33-Copy" stroke="#000000" stroke-width="0.999000013" fill="none"></path>
                                            <path d="M0.999000013,31.9680004 C2.82728501,33.7687301 6.71904158,34.6241519 12.6742697,34.5342658 C18.6294979,34.4443797 22.5212544,33.5889579 24.3495394,31.9680004" id="Path-33-Copy-2" stroke="#000000" stroke-width="1.99800003" fill="none"></path>
                                        </g>
                                    </g>
                                </g>
                                <g id="Group-14" transform="translate(1.498500, 0.000000)" stroke-width="0.555000007">
                                    <ellipse id="Oval-Copy-11" stroke="#000000" fill="#3E3E3E" cx="10.4590958" cy="3.49650005" rx="10.4590958" ry="3.49650005"></ellipse>
                                    <ellipse id="Oval-Copy-11" stroke="#737373" fill="#000000" cx="10.4895001" cy="3.49650005" rx="4.49550006" ry="1.49850002"></ellipse>
                                </g>
                            </g>
                            <path d="M8.81198009,30.9770003 L8.81198009,29.9540984 L6.06375447,29.9540984 L7.51688975,28.4219407 C7.91492881,27.9858538 8.19589757,27.6039119 8.35979601,27.276115 C8.52369445,26.9483181 8.60564367,26.6263748 8.60564367,26.3102849 C8.60564367,25.7337136 8.42345299,25.287383 8.05907164,24.9712932 C7.69469028,24.6552033 7.18323935,24.4971584 6.52471883,24.4971584 C6.09448543,24.4971584 5.70961677,24.5886196 5.37011286,24.771542 C5.03060895,24.9544643 4.76793243,25.2068972 4.58208331,25.5288406 C4.39623419,25.8507839 4.30330963,26.206385 4.30330963,26.5956438 L4.30330963,26.5956438 L5.57644929,26.5956438 C5.57644929,26.2737004 5.6591302,26.0139507 5.82449202,25.8163945 C5.98985384,25.6188384 6.21594588,25.5200603 6.50276815,25.5200603 C6.76910311,25.5200603 6.97397616,25.6012778 7.1173873,25.7637129 C7.26079843,25.9261479 7.332504,26.1493132 7.332504,26.4332087 C7.332504,26.6410085 7.26445688,26.8605154 7.12836264,27.0917292 C6.9922684,27.3229431 6.78227352,27.5936682 6.49837801,27.9039046 L6.49837801,27.9039046 L4.43062359,30.1077532 L4.43062359,30.9770003 L8.81198009,30.9770003 Z M13.9703908,30.9770003 L13.9703908,29.9540984 L11.2221652,29.9540984 L12.6753005,28.4219407 C13.0733395,27.9858538 13.3543083,27.6039119 13.5182067,27.276115 C13.6821052,26.9483181 13.7640544,26.6263748 13.7640544,26.3102849 C13.7640544,25.7337136 13.5818637,25.287383 13.2174823,24.9712932 C12.853101,24.6552033 12.3416501,24.4971584 11.6831295,24.4971584 C11.2528961,24.4971584 10.8680275,24.5886196 10.5285236,24.771542 C10.1890197,24.9544643 9.92634315,25.2068972 9.74049402,25.5288406 C9.5546449,25.8507839 9.46172034,26.206385 9.46172034,26.5956438 L9.46172034,26.5956438 L10.73486,26.5956438 C10.73486,26.2737004 10.8175409,26.0139507 10.9829027,25.8163945 C11.1482645,25.6188384 11.3743566,25.5200603 11.6611789,25.5200603 C11.9275138,25.5200603 12.1323869,25.6012778 12.275798,25.7637129 C12.4192091,25.9261479 12.4909147,26.1493132 12.4909147,26.4332087 C12.4909147,26.6410085 12.4228676,26.8605154 12.2867734,27.0917292 C12.1506791,27.3229431 11.9406842,27.5936682 11.6567887,27.9039046 L11.6567887,27.9039046 L9.5890343,30.1077532 L9.5890343,30.9770003 L13.9703908,30.9770003 Z M16.8942219,31.064803 C17.5995705,31.064803 18.1351672,30.8306624 18.501012,30.3623811 C18.8668567,29.8940999 19.0497791,29.2180188 19.0497791,28.334138 L19.0497791,28.334138 L19.0497791,27.1575813 C19.0409988,26.3000413 18.8522229,25.6422524 18.4834514,25.1842148 C18.1146799,24.7261772 17.58201,24.4971584 16.8854416,24.4971584 C16.1888733,24.4971584 15.6554716,24.7283723 15.2852368,25.1908 C14.9150019,25.6532278 14.7298845,26.3307722 14.7298845,27.2234334 L14.7298845,27.2234334 L14.7298845,28.39999 C14.7386647,29.2575301 14.9274406,29.9160506 15.2962121,30.3755516 C15.6649836,30.8350525 16.1976535,31.064803 16.8942219,31.064803 Z M16.8942219,30.0419012 C16.5810588,30.0419012 16.3535034,29.9153189 16.2115556,29.6621543 C16.0696079,29.4089898 15.998634,29.0219261 15.998634,28.5009632 L15.998634,28.5009632 L15.998634,26.9468547 C16.0074143,26.4580862 16.0827783,26.0988266 16.224726,25.8690762 C16.3666738,25.6393257 16.5869123,25.5244504 16.8854416,25.5244504 C17.1927512,25.5244504 17.4188432,25.6451792 17.5637178,25.8866367 C17.7085923,26.1280942 17.7810295,26.5136946 17.7810295,27.0434377 L17.7810295,27.0434377 L17.7810295,28.5624251 C17.775176,29.0629007 17.7034704,29.4345989 17.5659128,29.6775198 C17.4283552,29.9204407 17.2044582,30.0419012 16.8942219,30.0419012 Z" id="220" fill="#000000" fill-rule="nonzero"></path>
                        </g>
                        <g id="Single-Use-Camera-Icon-Copy" transform="translate(89.000000, 20.000000)">
                            <mask id="mask-6" fill="white">
                                <use xlink:href="#path-5"></use>
                            </mask>
                            <use id="Path-31-Copy" fill="#FCCD00" xlink:href="#path-5"></use>
                            <g id="Single-Use-Camera" mask="url(#mask-6)">
                                <g transform="translate(-0.316523, 0.583726)"></g>
                            </g>
                            <mask id="mask-8" fill="white">
                                <use xlink:href="#path-7"></use>
                            </mask>
                            <path stroke="#24241F" stroke-width="0.555000007" d="M54.4173981,0.306227795 L54.793,0.309 L54.8094603,0.309786663 L54.8094603,0.309786663 L54.843,0.31 L55.1836912,0.319715665 C56.3559705,0.360771105 57.6341891,0.498824993 59.0610182,0.778320555 L59.5421906,0.876785288 L58.416,0.873 L58.800735,0.989888346 C59.9904348,1.36752415 61.1388717,1.89294903 62.1533052,2.54333264 L62.4863594,2.76472397 C64.44346,4.1136279 65.822325,5.94419486 65.9573762,8.06572574 C66.1334829,10.8322027 64.9273705,13.6996944 63.9590159,15.9807821 C63.399329,17.2991987 62.916803,18.411776 62.8776128,19.1773083 C62.8216291,20.2708821 63.2024993,23.0447193 63.5640136,25.7002254 C63.8929777,28.116634 64.2062839,30.4366605 64.1808166,31.3476335 C64.1505387,32.4306833 63.1307212,33.823346 61.5359738,34.8613746 C60.1946307,35.7344612 58.4653137,36.3541421 56.6698126,36.3225507 C52.9327558,36.2567981 18.5593476,36.2770682 10.4761198,36.3225892 C7.08062368,36.3417111 4.85570143,35.5591377 3.40418112,34.4547853 C1.27827815,32.8373461 0.786692885,30.516265 0.76713523,28.8738665 C0.750307361,27.460708 1.02497109,25.4925927 1.29109165,23.5960783 C1.52784661,21.9088385 1.75787729,20.2792329 1.75787729,19.1631208 C1.75787729,18.1706536 1.41005654,17.2087176 1.01461284,16.0941003 C0.468850679,14.5557879 -0.172683505,12.7402074 -0.2235899,10.21283 C-0.269410312,7.93795925 0.525394337,5.83394536 1.87123353,4.27747191 C3.20675838,2.73292708 5.08414382,1.72678197 7.22480345,1.6209784 C11.3797192,1.41561883 38.3194276,1.49638031 42.6760896,1.62075307 C44.8089073,1.68164015 46.6159045,1.34197354 48.4696978,0.995309589 C50.1926652,0.673110402 51.9552887,0.344616434 54.0451446,0.309346996 L54.135,0.308 L54.164,0.308 L54.4173981,0.306227795 L54.4173981,0.306227795 Z"></path>
                            <path d="M54.344417,3.72932026 L54.8766926,3.73209147 C57.2464434,3.77479938 59.8953814,4.5981097 61.8928422,5.97483136 C63.5144238,7.0924836 64.7329042,8.5822584 64.8462055,10.3621192 C65.0105394,12.9436545 63.842191,15.6080744 62.9410248,17.7308908 C62.3102171,19.2168421 61.8095823,20.4764097 61.7655858,21.3358289 C61.7076985,22.4665866 62.0874527,25.3355681 62.4614046,28.0824347 C62.7789447,30.4149284 63.0922774,32.6544076 63.0676865,33.5340294 C63.0450358,34.3442527 62.1507075,35.2901845 61.0250865,36.0366383 C59.8909602,36.7887324 58.4259295,37.340181 56.9029801,37.3412381 L56.9029801,37.3412381 L54.4864403,37.3213869 C52.7435466,37.3129447 50.2321,37.3070028 47.2703717,37.3032241 L47.2703717,37.3032241 L38.882,37.3 L39.2181981,37.0752825 C42.1898015,35.0351027 44.0401459,32.4336457 45.17433,29.6604509 L45.3070205,29.3268681 C47.2209918,24.3777048 46.8854461,18.9204588 46.6438773,15.250981 C46.6183446,14.863134 46.5941669,14.4960504 46.5744041,14.1526501 C46.4113833,11.3199789 46.7368411,8.1437591 47.5420278,4.62381804 C47.9548681,4.55151586 48.366029,4.4746717 48.7794469,4.39736044 C50.6347313,4.0504127 52.5373371,3.68993134 54.8766926,3.73209147 Z" id="Path" stroke="#8D0D02" stroke-width="1.85000002" fill="#E2221F" mask="url(#mask-8)"></path>
                            <path d="M16.6716799,5.81168885 C14.4328908,6.7244037 7.32050791,6.00463807 6.63109384,10.1216108 C5.94167976,14.2385835 8.92841808,16.5474702 8.92841808,19.3716109 C8.92841808,22.1957516 6.07392586,26.6220211 6.63109384,29.6759665 C7.18826181,32.7299119 12.7910158,33.5371189 15.2278127,33.9432517 C17.126676,34.2597289 17.4585344,34.8816207 17.8866031,35.9395497 L10.4745571,35.9633178 L10.4745571,35.9633178 C2.39020152,36.008506 1.07641244,31.4586622 1.04461556,28.7884473 C1.01281869,26.1182325 2.03537729,21.4513183 2.03537729,19.0810058 C2.03537729,16.7106933 0.142017893,14.5022558 0.0538538296,10.1251268 C-0.0343102341,5.74799783 3.08611949,2.0212595 7.23850236,1.81602513 L7.86643978,1.79203984 C9.80397239,1.73283394 13.9528696,1.70284854 18.7524434,1.69372561 C18.7673134,3.39661146 18.1677191,5.20178005 16.6716799,5.81168885 Z" id="Path" fill="#000000" mask="url(#mask-8)"></path>
                            <path d="M54.4399095,0.583725593 L54.7945333,0.587212647 C59.5662326,0.673208742 65.3922874,3.71270097 65.67051,8.08332602 C65.9487327,12.4539511 62.6975022,17.0738925 62.5905491,19.1630918 C62.4835959,21.252291 63.9469749,29.4269786 63.8934983,31.3398498 C63.8406509,33.2302165 60.482764,36.0437077 56.7965527,36.0461795 L54.0618359,36.0248574 C53.6121098,36.0228602 53.1172906,36.0210124 52.5820887,36.0193089 L52.5734334,36.0461795 C53.203262,33.6239321 54.3411273,32.336533 55.9870291,32.1839822 L56.0884334,32.1760603 C58.63941,32.0134627 59.3317147,29.7891267 59.4921444,28.31274 C59.6496032,26.8636937 57.5559578,25.6064212 56.6739558,23.4218314 C55.7919538,21.2372415 56.7353816,19.8378176 56.2981746,17.6691262 C56.001551,16.1977754 52.8557511,13.3744715 46.3020318,8.19543501 L46.3020318,1.65290983 C48.8122689,1.27855772 51.1457027,0.616587037 54.1784089,0.584878825 L54.4399095,0.583725593 Z" id="Path" fill="#000000" mask="url(#mask-8)"></path>
                            <ellipse id="Oval" stroke="#000000" stroke-width="0.555000007" fill="#333333" mask="url(#mask-8)" cx="29.4670316" cy="18.3437258" rx="12.3950002" ry="11.1000001"></ellipse>
                            <ellipse id="Oval-Copy-8" stroke="#000000" stroke-width="0.555000007" fill="#828282" mask="url(#mask-8)" cx="27.9884769" cy="20.5637259" rx="6.10500008" ry="4.44000006"></ellipse>
                            <ellipse id="Oval-Copy-9" fill="#000000" mask="url(#mask-8)" cx="22.9920315" cy="3.54372563" rx="3.33000004" ry="1.11000001"></ellipse>
                            <path d="M-0.316523442,9.33012631 C-0.17199219,7.60514582 3.74028813,6.12026787 7.76132823,6.13381768 C10.4420216,6.14285088 24.0093509,6.29725843 48.4633161,6.59704034 L64.8020321,10.0187257 L68.3869491,8.07622569 L62.2120321,-1.11000001 L48.4633161,-1.11000001 L15.7118117,-1.11000001 L2.08721194,0.583725593 L-2.22000003,8.07622569 C-1.04736981,10.0621464 -0.412877609,10.4801133 -0.316523442,9.33012631 Z" id="Path-31" fill="#FFFFFF" opacity="0.567778088" mask="url(#mask-8)"></path>
                            <ellipse id="Oval" stroke="#FFFFFF" stroke-width="0.555000007" fill="#32332F" mask="url(#mask-8)" cx="54.2570319" cy="10.2037257" rx="10.5450001" ry="6.66000009"></ellipse>
                            <rect id="Rectangle" fill="#E2D8D6" opacity="0.655412946" mask="url(#mask-8)" x="49.2620319" y="7.24372568" width="11.1000001" height="5.55000007"></rect>
                            <rect id="Rectangle-Copy-19" fill="#E2D8D6" opacity="0.926920573" mask="url(#mask-8)" x="49.2620319" y="10.5737257" width="11.1000001" height="2.22000003"></rect>
                            <rect id="Rectangle" fill="#E2221F" mask="url(#mask-8)" x="8.19203136" y="9.46372571" width="8.88000011" height="2.59000003"></rect>
                            <ellipse id="Oval" fill="#FCCD00" mask="url(#mask-8)" cx="50.3720319" cy="26.6687259" rx="2.22000003" ry="2.03500003"></ellipse>
                            <path d="M25.2134769,20.5637259 C25.2944136,19.8225991 25.6947953,19.2444333 26.4146219,18.8292284 C27.1344485,18.4140235 27.8440668,18.265133 28.5434769,18.3825569" id="Path-32" stroke="#F9F9F9" stroke-width="1.11000001" stroke-linecap="round" mask="url(#mask-8)"></path>
                        </g>
                        <g id="120-film" transform="translate(66.000000, 16.000000)">
                            <ellipse id="Oval-Copy-13" fill="#000000" cx="11.8914784" cy="59.7566095" rx="11.8914784" ry="3.51339135"></ellipse>
                            <g id="Group-12" transform="translate(2.702609, 4.497762)">
                                <mask id="mask-10" fill="white">
                                    <use xlink:href="#path-9"></use>
                                </mask>
                                <use id="Mask" fill="#E2E2E2" xlink:href="#path-9"></use>
                                <g mask="url(#mask-10)">
                                    <g transform="translate(-0.540522, -1.081043)">
                                        <path d="M9.86159603,11.3710151 C15.0094832,11.3710151 19.1826703,10.1610159 19.1826703,8.66840636 C19.1826703,8.21089199 19.2747078,5.34711206 19.4587829,0.0770665771 L0.780223852,1.5362552e-14 C0.620422448,4.78386452 0.540521746,7.6733333 0.540521746,8.66840636 C0.540521746,10.1610159 4.71370885,11.3710151 9.86159603,11.3710151 Z" id="Oval-Copy-14" stroke="none" fill="#7100FF" fill-rule="evenodd"></path>
                                        <path d="M9.59527962,35.0093401 C14.5960843,35.0093401 18.6500375,33.799341 18.6500375,32.3067314 C18.6500375,31.6204598 20.8990305,22.7723817 18.9182611,23.7153916 C16.9374917,24.6584015 13.9914679,25.481539 9.52907111,25.4625859 C6.55413994,25.4499505 3.63557464,24.8418636 0.77337522,23.638325 C0.618139571,28.4221895 0.540521746,31.3116583 0.540521746,32.3067314 C0.540521746,33.799341 4.59447493,35.0093401 9.59527962,35.0093401 Z" id="Oval-Copy-15" stroke="none" fill="#7100FF" fill-rule="evenodd"></path>
                                        <path d="M9.59527962,57.7112535 C14.5960843,57.7112535 18.6500375,56.5012543 18.6500375,55.0086447 C18.6500375,54.3223732 20.7309092,50.2943872 18.7501398,51.2373971 C16.7693705,52.1804069 13.8553565,52.9399878 9.36094985,52.9845914 C6.36467875,53.0143271 3.44611345,52.4062401 0.605253954,51.1603305 C0.562099149,52.7308003 0.540521746,54.0135717 0.540521746,55.0086447 C0.540521746,56.5012543 4.59447493,57.7112535 9.59527962,57.7112535 Z" id="Oval-Copy-16" stroke="none" fill="#7100FF" fill-rule="evenodd"></path>
                                        <path d="M-4.92939029e-14,47.9328471 C1.52357083,49.8245227 4.76670131,50.7231477 9.72939143,50.6287218 C14.6920816,50.534296 17.935212,49.6356711 19.4587829,47.9328471" id="Path-33" stroke="#000000" stroke-width="0.555000007" fill="none"></path>
                                        <path d="M-4.92939029e-14,45.2012818 C1.52357083,47.0929575 4.76670131,47.9915824 9.72939143,47.8971566 C14.6920816,47.8027308 17.935212,46.9041058 19.4587829,45.2012818" id="Path-33-Copy" stroke="#000000" stroke-width="0.555000007" fill="none"></path>
                                        <path d="M-4.92939029e-14,42.4697166 C1.52357083,44.3613922 4.76670131,45.2600172 9.72939143,45.1655913 C14.6920816,45.0711655 17.935212,44.1725406 19.4587829,42.4697166" id="Path-33-Copy-2" stroke="#000000" stroke-width="1.08104349" fill="none"></path>
                                        <rect id="Rectangle" stroke="none" fill="#C0C0C0" fill-rule="evenodd" opacity="0.372070312" style="mix-blend-mode: multiply;" x="0.0579130442" y="2.13328128" width="4.44000006" height="55.5000007"></rect>
                                        <rect id="Rectangle-Copy-20" stroke="none" fill="#FFFFFF" fill-rule="evenodd" opacity="0.480864025" x="15.5979132" y="2.13328128" width="4.44000006" height="55.5000007"></rect>
                                    </g>
                                </g>
                            </g>
                            <g id="Group-14" transform="translate(0.555000, 0.000000)" stroke-width="0.555000007">
                                <ellipse id="Oval-Copy-11" stroke="#000000" fill="#3E3E3E" cx="11.6212175" cy="3.88500005" rx="11.6212175" ry="3.88500005"></ellipse>
                                <ellipse id="Oval-Copy-11" stroke="#737373" fill="#000000" cx="11.6550002" cy="3.88500005" rx="4.99500006" ry="1.66500002"></ellipse>
                            </g>
                            <path d="M7.0267827,20.5687829 C8.64518082,21.0855512 10.3162763,21.3439354 12.0400691,21.3439354 C13.7638619,21.3439354 15.5160709,21.0855512 17.2966959,20.5687829 L17.2966959,23.8119134 C15.5723752,24.183874 13.8583477,24.3698543 12.1546133,24.3698543 C10.4508789,24.3698543 8.74160201,24.183874 7.0267827,23.8119134 L7.0267827,20.5687829 Z" id="Rectangle" fill="#737373"></path>
                            <path d="M7.91308604,36.8600004 L7.91308604,30.5382034 L7.77867198,30.5382034 L5.16410163,31.4747659 L5.16410163,32.4937113 L6.66000009,32.0297659 L6.66000009,36.8600004 L7.91308604,36.8600004 Z M16.5069143,36.9467191 C17.2035549,36.9467191 17.7325393,36.7154691 18.0938674,36.2529691 C18.4551956,35.7904691 18.6358596,35.1227347 18.6358596,34.249766 L18.6358596,34.249766 L18.6358596,33.0877347 C18.6271877,32.2407816 18.4407424,31.5911136 18.0765237,31.1387308 C17.7123049,30.6863479 17.1862112,30.4601565 16.4982424,30.4601565 C15.8102736,30.4601565 15.2834572,30.6885159 14.9177932,31.1452347 C14.5521291,31.6019534 14.3692971,32.2711331 14.3692971,33.1527738 L14.3692971,33.1527738 L14.3692971,34.314805 C14.3779689,35.1617582 14.5644143,35.8121488 14.928633,36.2659769 C15.2928518,36.7198051 15.8189455,36.9467191 16.5069143,36.9467191 Z M16.5069143,35.9364457 C16.1976174,35.9364457 15.9728713,35.8114261 15.832676,35.5613871 C15.6924807,35.311348 15.622383,34.9290628 15.622383,34.4145316 L15.622383,34.4145316 L15.622383,32.8796097 C15.6310549,32.3968753 15.7054885,32.0420511 15.8456838,31.815137 C15.9858791,31.588223 16.2033986,31.4747659 16.4982424,31.4747659 C16.801758,31.4747659 17.0250588,31.5940042 17.1681448,31.8324808 C17.3112307,32.0709573 17.3827737,32.4517972 17.3827737,32.9750003 L17.3827737,32.9750003 L17.3827737,34.4752347 C17.3769924,34.9695316 17.3061721,35.336641 17.1703127,35.5765629 C17.0344533,35.8164847 16.8133205,35.9364457 16.5069143,35.9364457 Z" id="10" fill="#DDDDDD" fill-rule="nonzero"></path>
                            <path d="M13.6365236,37.1930004 L13.6365236,36.1827269 L10.9222267,36.1827269 L12.357422,34.6694847 C12.750547,34.2387816 13.028047,33.861555 13.189922,33.537805 C13.351797,33.214055 13.4327345,32.8960863 13.4327345,32.5838988 C13.4327345,32.0144456 13.2527931,31.5736253 12.8929103,31.2614378 C12.5330275,30.9492503 12.0278908,30.7931565 11.3775001,30.7931565 C10.9525783,30.7931565 10.5724611,30.8834886 10.2371486,31.0641526 C9.90183607,31.2448167 9.64240247,31.4941331 9.45884778,31.8121019 C9.27529309,32.1300706 9.18351574,32.4812816 9.18351574,32.8657347 L9.18351574,32.8657347 L10.4409376,32.8657347 C10.4409376,32.5477659 10.5225978,32.291223 10.6859181,32.0961058 C10.8492384,31.9009886 11.0725392,31.80343 11.3558205,31.80343 C11.6188673,31.80343 11.8212111,31.8836448 11.9628517,32.0440745 C12.1044923,32.2045042 12.1753127,32.4249144 12.1753127,32.705305 C12.1753127,32.9105394 12.1081056,33.1273363 11.9736916,33.3556956 C11.8392775,33.584055 11.6318751,33.8514378 11.3514845,34.1578441 L11.3514845,34.1578441 L9.30925793,36.3344847 L9.30925793,37.1930004 L13.6365236,37.1930004 Z" id="2" fill="#DDDDDD" fill-rule="nonzero"></path>
                        </g>
                    </g>
                    <g id="35mm-icon-copy-4" transform="translate(21.000000, 36.000000)">
                        <g id="35mm-icon-copy">
                            <g id="Group-8-Copy" transform="translate(0.000000, 34.104175)">
                                <path d="M11.8264478,9.35114475 C18.3580145,9.35114475 23.6528955,7.87350353 23.6528955,6.05074072 C23.6528955,4.83556551 23.6516421,3.92380025 23.6491353,3.31544493 L0.0182639546,3.21123296 C0.00608798486,4.18328751 0,5.1297901 0,6.05074072 C0,7.87350353 5.29488102,9.35114475 11.8264478,9.35114475 Z" id="Oval" fill="#4F4F4F"></path>
                                <ellipse id="Oval-Copy-3" fill="#22211C" cx="11.8264478" cy="3.30040403" rx="11.8264478" ry="3.30040403"></ellipse>
                            </g>
                            <path d="M34.821953,7.7700001 C36.0371283,7.7700001 37.0222224,8.75509424 37.0222224,9.97026945 L37.0222224,21.8798163 C37.0222226,22.9744321 36.217578,23.9025869 35.1340285,24.0578418 C32.5761107,24.4243496 30.7075036,25.3307785 29.5282071,26.7771285 C28.4339578,28.1191722 27.8891996,29.8494779 27.8939325,31.9680454 C27.8966493,33.1832188 26.9137574,34.1705121 25.6985841,34.1732268 L18.8700002,34.1732323 L19.2878597,7.7700001 L34.821953,7.7700001 Z M22.5436643,30.3331396 L21.0702696,30.3331396 L21.0702696,33.0730977 L22.5436643,33.0730977 L22.5436643,30.3331396 Z M26.4727167,30.3331396 L24.999322,30.3331396 L24.999322,33.0730977 L26.4727167,33.0730977 L26.4727167,30.3331396 Z M22.5436643,8.87013478 L21.0702696,8.87013478 L21.0702696,11.6100928 L22.5436643,11.6100928 L22.5436643,8.87013478 Z M26.4727167,8.87013478 L24.999322,8.87013478 L24.999322,11.6100928 L26.4727167,11.6100928 L26.4727167,8.87013478 Z M30.8929006,8.87013478 L29.419506,8.87013478 L29.419506,11.6100928 L30.8929006,11.6100928 L30.8929006,8.87013478 Z M34.821953,8.87013478 L33.3485584,8.87013478 L33.3485584,11.6100928 L34.821953,11.6100928 L34.821953,8.87013478 Z" id="Combined-Shape" fill="#6E6253"></path>
                            <g id="Rectangle" transform="translate(1.092883, 7.700943)">
                                <mask id="mask-12" fill="white">
                                    <use xlink:href="#path-11"></use>
                                </mask>
                                <use id="Mask" fill="#22FB22" xlink:href="#path-11"></use>
                                <rect fill="#FFFFFF" mask="url(#mask-12)" x="0.0171172024" y="0.0690573669" width="4.44000006" height="32.1900004"></rect>
                                <rect fill="#E0E0E0" mask="url(#mask-12)" x="0.0171172024" y="0.0690573669" width="2" height="32.1900004"></rect>
                            </g>
                            <path d="M22.7278489,7.70094273 L22.7281064,37.4332115 C22.3932435,38.3654865 21.6554422,39.1016557 20.7281064,39.4254979 C20.7664877,39.5339632 20.7664877,28.9591115 20.7281064,7.70094273 L22.7278489,7.70094273 Z" id="Path" fill="#040404"></path>
                            <g id="Group-8">
                                <path d="M11.8264478,11.5514141 C18.3580145,11.5514141 23.6528955,10.0737729 23.6528955,8.25101007 C23.6528955,7.03583486 23.6516421,6.1240696 23.6491353,5.51571428 L0.0182639546,5.41150231 C0.00608798486,6.38355686 -2.84217094e-14,7.33005945 -2.84217094e-14,8.25101007 C-2.84217094e-14,10.0737729 5.29488102,11.5514141 11.8264478,11.5514141 Z" id="Oval" fill="#4F4F4F"></path>
                                <path d="M11.8264478,19.1399118 C18.3580145,19.1399118 22.8015137,17.9199308 22.8015137,16.097168 C22.7893066,16.2304688 22.590332,25.5688477 22.6767578,25.8105469 C20.4000784,27.5528043 14.7773271,27.5425024 11.730957,27.6108398 C9.70004363,27.6563981 7.5488392,27.5087744 5.27734375,27.1679687 C5.49129183,22.116247 5.56192985,19.2495478 5.48925781,18.5678711 C7.29649331,18.8804242 9.54400724,19.1399118 11.8264478,19.1399118 Z" id="Oval-Copy-32" fill="#FFFFFF"></path>
                                <path d="M11.8264478,27.0427438 C18.3580145,27.0427438 22.8015137,25.8227628 22.8015137,24 C22.7893066,24.1333008 22.590332,28.4716797 22.6767578,28.7133789 C20.4000784,30.4556364 14.7773271,30.4453345 11.730957,30.5136719 C9.70004363,30.5592302 7.5488392,30.4116065 5.27734375,30.0708008 C5.49129183,28.3524124 5.56192985,27.1523798 5.48925781,26.4707031 C7.29649331,26.7832562 9.54400724,27.0427438 11.8264478,27.0427438 Z" id="Oval-Copy-33" fill="#5000FF"></path>
                                <ellipse id="Oval-Copy-3" fill="#22211C" cx="11.8264478" cy="5.50067338" rx="11.8264478" ry="3.30040403"></ellipse>
                                <g id="Oval-Copy-6" transform="translate(0.000000, 1.650202)">
                                    <mask id="mask-14" fill="white">
                                        <use xlink:href="#path-13"></use>
                                    </mask>
                                    <use id="Mask" fill="#22211C" xlink:href="#path-13"></use>
                                    <ellipse fill="#626262" mask="url(#mask-14)" cx="12.1014814" cy="4.95060604" rx="11.0013468" ry="3.30040403"></ellipse>
                                </g>
                                <g id="Group-9" transform="translate(6.600808, 0.000000)" fill="#000000">
                                    <path d="M5.3035593,7.34855584 C8.14656662,7.34855584 10.4512794,6.73287201 10.4512794,5.9733875 C10.4512794,5.74451259 10.4075253,4.27838259 10.320017,1.5749975 L0,1.46004202 C0.103892789,3.962616 0.155839183,5.4670645 0.155839183,5.9733875 C0.155839183,6.73287201 2.46055198,7.34855584 5.3035593,7.34855584 Z" id="Oval-Copy-7"></path>
                                    <ellipse id="Oval-Copy-5" stroke="#979797" stroke-width="0.555000007" cx="5.10047791" cy="1.37516835" rx="4.95060604" ry="1.37516835"></ellipse>
                                </g>
                            </g>
                        </g>
                        <path d="M10.4322205,25.9197861 L10.4322205,20.0721925 L10.3132949,20.0721925 L8,20.9385027 L8,21.881016 L9.32352691,21.4518717 L9.32352691,25.9197861 L10.4322205,25.9197861 Z M17.8913008,25.5 C18.5076679,25.5 18.9756977,25.2860963 19.2953902,24.8582888 C19.6150827,24.4304813 19.7749289,23.8128342 19.7749289,23.0053476 L19.7749289,21.9304813 C19.7672563,21.1470588 19.602295,20.546123 19.280045,20.1276738 C18.9577949,19.7092246 18.4923227,19.5 17.8836282,19.5 C17.2749337,19.5 16.808822,19.7112299 16.4852932,20.1336898 C16.1617644,20.5561497 16,21.1751337 16,21.9906417 L16,23.065508 C16.0076726,23.8489305 16.1726339,24.4505348 16.494884,24.8703209 C16.817134,25.290107 17.2826063,25.5 17.8913008,25.5 Z M17.9730638,24.8581748 C17.6708167,24.8581748 17.4511932,24.7304514 17.3141933,24.4750046 C17.1771935,24.2195578 17.1086936,23.8290048 17.1086936,23.3033455 L17.1086936,23.3033455 L17.1086936,21.735227 C17.1171678,21.2420523 17.1899048,20.8795541 17.3269047,20.6477325 C17.4639045,20.4159108 17.6764661,20.3 17.9645896,20.3 C18.2611872,20.3 18.4793983,20.4218171 18.6192229,20.6654513 C18.7590475,20.9090856 18.8289598,21.298162 18.8289598,21.8326807 L18.8289598,21.8326807 L18.8289598,23.3653615 C18.8233103,23.8703488 18.7541042,24.2453978 18.6213414,24.4905086 C18.4885787,24.7356194 18.2724861,24.8581748 17.9730638,24.8581748 Z M13.6436797,26 C14.2600468,26 14.7280766,25.7860963 15.0477691,25.3582888 C15.3674616,24.9304813 15.5273079,24.3128342 15.5273079,23.5053476 L15.5273079,23.5053476 L15.5273079,22.4304813 C15.5196352,21.6470588 15.3546739,21.046123 15.0324239,20.6276738 C14.7101739,20.2092246 14.2447016,20 13.6360071,20 C13.0273126,20 12.5612009,20.2112299 12.2376721,20.6336898 C11.9141433,21.0561497 11.7523789,21.6751337 11.7523789,22.4906417 L11.7523789,22.4906417 L11.7523789,23.565508 C11.7600515,24.3489305 11.9250129,24.9505348 12.2472629,25.3703209 C12.5695129,25.790107 13.0349852,26 13.6436797,26 Z M13.7254427,25.2810927 C13.4231956,25.2810927 13.2035721,25.1533693 13.0665723,24.8979226 C12.9295724,24.6424758 12.8610725,24.2519227 12.8610725,23.7262634 L12.8610725,23.7262634 L12.8610725,22.158145 C12.8695467,21.6649703 12.9422837,21.3024721 13.0792836,21.0706504 C13.2162834,20.8388288 13.4288451,20.722918 13.7169685,20.722918 C14.0135661,20.722918 14.2317772,20.8447351 14.3716018,21.0883693 C14.5114264,21.3320035 14.5813387,21.72108 14.5813387,22.2555987 L14.5813387,22.2555987 L14.5813387,23.7882794 C14.5756892,24.2932667 14.5064831,24.6683158 14.3737204,24.9134266 C14.2409576,25.1585373 14.0248651,25.2810927 13.7254427,25.2810927 Z" id="10" fill="#5000FF" fill-rule="nonzero"></path>
                    </g>
                    <g id="Prints" transform="translate(0.000000, 76.000000)">
                        <g id="Path-94-Copy-2" transform="translate(7.000000, 9.000000)">
                            <use fill="black" fill-opacity="1" filter="url(#filter-16)" xlink:href="#path-15"></use>
                            <path stroke="#FFFFFF" stroke-width="2.2904629" d="M31.3135912,-1.30515048 L113.463229,22.1442572 L93.1426452,71.0654407 L-1.94839495,38.3470857 L31.3135912,-1.30515048 Z" fill="#67317D" fill-rule="evenodd"></path>
                        </g>
                        <g id="Path-94-Copy">
                            <use fill="black" fill-opacity="1" filter="url(#filter-19)" xlink:href="#path-18"></use>
                            <path stroke="#FFFFFF" stroke-width="2.2904629" d="M31.8834342,4.72534136 L116.737222,28.0077374 L92.7046911,69.388589 L-2.16543709,36.8249256 L31.8834342,4.72534136 Z" fill="url(#linearGradient-17)" fill-rule="evenodd"></path>
                        </g>
                        <g id="Path-94">
                            <use fill="black" fill-opacity="1" filter="url(#filter-22)" xlink:href="#path-21"></use>
                            <path stroke="#FFFFFF" stroke-width="2.2904629" d="M45.15759,-1.30329307 L128.661426,25.5138546 L105.549158,68.4140647 L9.91125772,33.6929716 L45.15759,-1.30329307 Z" fill="url(#linearGradient-20)" fill-rule="evenodd"></path>
                        </g>
                        <g id="Group-32" filter="url(#filter-23)" transform="translate(15.000000, 4.000000)">
                            <mask id="mask-25" fill="white">
                                <use xlink:href="#path-24"></use>
                            </mask>
                            <path stroke="#FFFFFF" stroke-width="2.2904629" d="M23.7376393,-1.25184674 L119.381653,14.5001427 L103.722976,61.9618157 L-1.85494781,38.2642812 L23.7376393,-1.25184674 Z"></path>
                            <g mask="url(#mask-25)">
                                <g transform="translate(-2.995221, -1.129797)">
                                    <polygon id="Path-88" fill="url(#linearGradient-26)" points="121.680841 15.5839911 26.3589631 0 13.4784932 18.2547549 113.280923 40.1872346"></polygon>
                                    <path d="M43.9057347,20.6901807 C46.1521502,18.258469 55.3201882,11.1939275 66.1412653,14.3593452 C76.9623424,17.5247629 79.293899,23.5896989 78.5271016,29.7506235 C77.7603042,35.9115481 41.6593191,23.1218923 43.9057347,20.6901807 Z" id="Path-87" fill="#FBE6D4"></path>
                                    <polygon id="Path-89" fill="#F7684B" points="28.4545968 18.076753 39.9674616 18.076753 43.6351592 19.9214998 51.272972 19.9214998 52.6208214 21.3469859 60.2586342 19.7118694 66.5691216 25.4638311 70.2926236 25.4638311 74.2441604 27.7727067 81.8991038 27.7727067 89.012753 31.590185 95.658399 31.590185 102.036406 36.1512994 83.3967142 38.7764593 62.5226264 38.7764593 34.6494971 24.0920397"></polygon>
                                    <polygon id="Path-90" fill="#C04C3B" points="16.6333713 16.1525674 29.4179034 13.5575647 36.7737443 21.1711907 43.0637078 21.1711907 67.3249955 34.1373773 84.0982315 32.9244636 86.7190496 35.4385563 115.498324 32.9244636 106.438073 58.6038093 2.99522071 34.1373773"></polygon>
                                    <path d="M11.9495381,24.1023373 C21.8027057,25.7371367 12.8961326,26.6925477 16.2741805,30.2581131 C16.9801508,31.0032723 18.3717134,29.8318406 19.3425267,30.1573435 C20.2030859,30.4458793 20.5422848,31.6235361 21.3812658,31.9704618 C22.3253545,32.3608504 23.4554477,31.9551803 24.4298681,32.2610021 C26.5089609,32.9135251 27.7212987,33.3984886 28.0583557,33.5695365 C28.5453804,33.8166892 28.3219735,34.774296 28.8013108,35.0362132 C31.9292965,36.7453919 41.7701378,38.6976921 44.4691817,39.6289559 C45.0328237,39.823432 45.2467966,40.7164324 45.8388224,40.7844971 C53.5869498,41.6752927 42.1467223,38.2389634 49.5689544,40.0011417 C56.1688865,41.5680904 50.9059843,42.2749846 60.6079808,41.3780819 C61.1760849,41.3255634 61.829555,42.1530891 62.2701235,41.788516 C62.9064558,41.2619471 62.4983991,38.7419907 62.9874847,39.409028 L63.4752319,39.3501844 C65.8104147,42.5350132 68.0738114,44.6504301 72.4097061,45.1646673 C72.7448835,45.2044194 72.8542187,44.2622755 73.1336486,44.4526598 C74.3775091,45.3001407 74.9807551,46.9007649 76.2173512,47.7589344 C76.6566026,48.0637649 77.3117147,47.531361 77.8173373,47.703033 C82.0503628,49.1402555 62.4818744,48.9667621 80.6026878,47.3198141 C82.3839313,47.157922 84.265035,48.2245784 85.9583998,47.6456605 C88.3503446,46.8279161 90.0724035,44.6890346 92.2186744,43.3486068 L92.816841,43.7391812 C93.3357831,43.4150821 93.4397342,41.9158952 93.9334675,42.2776534 C96.1456732,43.8985358 93.0846879,45.2206942 95.6043853,46.1289668 C102.965216,48.7823172 94.1501376,44.7409246 100.157179,45.4875716 C100.674005,45.5518106 100.684235,46.4761322 101.157536,46.6946009 C123.530768,57.0217424 77.0170135,33.0500627 103.557515,48.6048111 C103.978698,48.8516559 104.818242,47.4209733 104.846718,47.9104567 C105.169272,53.4549163 108.894224,61.2236383 104.486209,64.5683434 C94.8928643,71.8475629 70.9167959,59.1315189 61.7845702,55.0908466 C45.5585627,47.9114381 26.2651908,51.0153096 9.57807792,47.4500055 C7.02757581,46.9050751 5.71002334,43.9215045 3.62931803,42.3409102 C3.00516044,41.866773 1.32331884,42.0863397 1.51233465,41.322916 C2.02649454,39.2462546 7.89913708,28.5507944 9.77551678,26.0081343 L11.9495381,24.1023373 Z" id="Path-93" fill="#832833"></path>
                                    <path d="M117.940143,21.0895452 C106.629911,24.096126 119.778215,19.7184947 116.381107,23.205708 C115.669858,23.9358225 114.314757,23.3247064 113.374186,23.711763 C113.141791,23.8073965 113.207845,24.2390839 113.315686,24.4671676 C113.493426,24.8430873 117.743689,25.715207 115.402688,26.6046613 C110.893742,28.3178178 103.499172,28.0506184 103.556356,35.2980672 C103.561794,35.9873369 105.138198,36.4037286 104.757077,36.9765808 C103.961392,38.1725497 98.4674128,38.324721 98.36737,38.8500138 C96.7470029,47.3580417 102.118595,40.4647862 100.195508,44.2047812 C98.6694336,47.1726699 96.7412935,44.0566334 95.6397886,46.1113137 C93.7905817,49.560712 96.6544916,48.3893315 93.5425491,51.5845038 C93.0389799,52.1015412 93.0602864,53.4414942 92.3425596,53.3895311 C85.49399,52.8936973 101.170463,46.8091029 87.8351034,54.0110666 C87.1690161,54.3707972 86.0053703,55.043057 85.600388,54.4009054 C84.185197,52.1569382 87.4884807,48.2808177 82.5832296,49.7493191 C81.5816844,50.049155 80.8032184,50.8873107 80.075756,51.6418763 C79.3481597,52.3965808 79.3167144,54.2415458 78.2717498,54.2214325 C77.7243029,54.2108953 78.7661564,49.4791606 76.0750596,51.4999161 C75.3239065,52.06396 75.599459,54.2454173 74.7032251,53.9691405 C73.7610657,53.6787065 74.8625427,51.9137076 74.4692235,51.0048943 C74.3220713,50.6648807 73.6767284,50.6823522 73.3694159,50.8872071 C72.5546253,51.4303476 72.3470423,52.8791278 71.3862522,53.060007 C63.770316,54.4937898 78.4956939,47.340822 68.684996,51.4381303 C68.0468627,51.7046383 67.5167405,52.2577847 67.165448,52.856261 C66.8799198,53.3426984 66.3323403,54.3721979 66.872946,54.5252125 C70.7159907,55.6129591 74.8193515,55.3899063 78.7426781,56.1331138 C85.9669624,57.5016317 89.0392289,60.0627933 96.5626325,62.8008289 C98.6780552,63.5707068 100.870994,64.1766583 103.09859,64.4925823 C104.150953,64.6418314 105.720825,65.0920755 106.271506,64.1777691 C108.683416,60.1732275 109.389552,55.3486564 111.20309,51.0365228 C119.133071,32.1810371 113.524328,53.1960752 119.055307,23.2248322 L117.940143,21.0895452 Z" id="Path-91" fill="#43011C"></path>
                                    <path d="M20.295161,14.88309 C24.4137124,19.7248856 19.6983933,13.2603485 20.8794338,17.9907674 C21.0845954,18.8125004 22.1482429,19.1816873 22.4728386,19.963499 C24.4960522,24.8365513 18.3689224,19.6945643 16.6264544,20.9873776 C7.8364574,27.5090612 18.9514431,23.3089161 16.0326753,26.0582246 C15.5003354,26.5596576 12.5370115,26.3705993 14.0202614,28.559813 C14.6901053,29.548474 16.2526437,29.6062866 16.9964695,30.5399 C17.3752966,31.0153851 16.5769303,31.9908469 17.0535074,32.3669937 L16.4100029,33.0642903 C21.2564958,36.8894697 18.1865227,26.8726015 18.5562365,40.3042594 C18.5799853,41.1670512 18.3126602,42.6040556 19.1419718,42.8257075 C19.9901948,43.052414 20.2918121,41.4662704 21.0110597,40.9603655 C22.4707969,39.9336147 22.1109798,42.9041114 22.4421259,42.996354 C23.3037712,43.2363699 23.9243774,41.8811121 24.8033485,41.7165057 C25.4336926,41.5984601 26.2627543,41.702918 26.6643926,42.2056431 C29.0032032,45.1331007 22.6107759,45.6544762 21.7540149,45.393495 C18.777808,44.4869015 16.2138817,42.432569 13.2085683,41.6289759 C6.63485636,39.8712259 6.64169792,42.2875932 1.63353199,39.9158917 C-0.747659576,38.7882382 -0.20038007,36.5485827 1.21379159,34.8899129 C4.14229012,31.4551022 9.90459373,26.0046904 12.5636013,21.4721017 C12.8527934,20.9791401 17.6197347,6.25156385 20.1072285,13.1199887" id="Path-92" fill="#43011C"></path>
                                </g>
                            </g>
                        </g>
                    </g>
                    <g id="110" transform="translate(94.000000, 75.000000)">
                        <path d="M7.27403483,17.4090957 L7.35701763,17.3629694 L7.10773726,17.348456 C3.05674781,17.0958211 0.0283036375,16.0834818 0.0283036375,14.8730898 C0.0283036375,13.9486955 0.0188690917,10.0376045 1.02968033e-14,3.13981685 L49.8582726,3.34265959 C49.9686568,9.97090991 50.0238489,13.7741326 50.0238489,14.7523276 C50.0238489,16.101753 47.4172629,17.2162026 44.0413946,17.3865417 L44.0414034,17.4090957 L7.27403483,17.4090957 Z" id="Path-Copy" fill="#000000"></path>
                        <path d="M7.27403483,5.31353621 L7.35701763,5.26740993 L7.10773726,5.2528965 C3.05674781,5.00026158 0.0283036375,3.98792228 0.0283036375,2.77753029 C0.0283036375,1.39093887 4.00263897,0.264259063 8.93569086,0.241864125 L9.08546763,0.241524373 C14.0876012,0.241524373 18.1426316,1.3769329 18.1426316,2.77753029 C18.1426316,2.9856314 18.0531124,3.18787817 17.8842682,3.38141623 L36.5161013,3.38138652 C36.3472912,3.15104009 36.2569596,2.90797565 36.2569596,2.6567681 C36.2569596,1.20414852 39.2774545,0.0238172936 43.0265739,0.00035593102 L43.1404042,0 C46.9420257,0 50.0238489,1.1894756 50.0238489,2.6567681 C50.0238489,4.00619349 47.4172629,5.12064313 44.0413946,5.29098223 L44.0414034,5.31353621 L7.27403483,5.31353621 Z" id="Path" stroke="#979797" stroke-width="0.555000007" fill="#3E3E3E"></path>
                        <ellipse id="Oval-Copy-19" fill="#000000" cx="8.96470544" cy="2.6567681" rx="4.34743872" ry="1.20762187"></ellipse>
                        <path d="M10.1440237,7.72877994 C27.1091988,7.78694706 37.7510646,7.78694706 42.069621,7.72877994 C46.3881775,7.67061282 48.968878,7.0711292 49.8117225,5.93032908 L49.7405861,13.1891932 C48.9795076,14.7087337 46.4028953,15.3038397 42.0107495,14.9745111 C32.1995237,15.4168768 21.5772818,15.4168768 10.1440237,14.9745111 L10.1440237,7.72877994 Z" id="Rectangle" fill="#E2221F"></path>
                        <rect id="Rectangle" fill="#D8D8D8" opacity="0.636625744" x="13.0616381" y="10.0474139" width="10.0474139" height="2.00948278"></rect>
                        <rect id="Rectangle-Copy-18" fill="#000000" x="32.8473147" y="10.1440237" width="5.31353621" height="3.13981685"></rect>
                    </g>
                    <g id="Over-40-years-text-strip" transform="translate(12.000000, 0.000000)">
                        <g id="Over-40-Years" transform="translate(0.224000, 0.000000)">
                            <path d="M35.622272,12.8957696 L35.622272,6.1824896 L31.046848,12.8957696 L35.622272,12.8957696 Z M35.55328,8.96000002e-05 L39.353664,8.96000002e-05 L39.353664,12.8957696 L41.1376,12.8957696 L41.1376,16.4228736 L39.353664,16.4228736 L39.353664,20.5355136 L35.622272,20.5355136 L35.622272,16.4228736 L26.88,16.4228736 L26.88,12.8957696 L35.55328,8.96000002e-05 Z" id="Fill-113" fill="#D2334D"></path>
                            <path d="M49.7642432,3.62208 C49.1209152,3.62208 48.5501632,3.829056 48.0519872,4.241664 C47.5533632,4.655168 47.1730112,5.365248 46.9104832,6.373248 C46.6475072,7.3808 46.5162432,8.856512 46.5162432,10.79904 C46.5162432,13.331584 46.8172992,15.081472 47.4203072,16.048256 C48.0224192,17.015488 48.8037312,17.49888 49.7642432,17.49888 C50.6880192,17.49888 51.4218432,17.040128 51.9657152,16.123072 C52.6269632,15.016064 52.9575872,13.164032 52.9575872,10.567424 C52.9575872,7.934528 52.6605632,6.118784 52.0674112,5.120192 C51.4742592,4.1216 50.7063872,3.62208 49.7642432,3.62208 M49.6755392,-1.27329258e-14 C51.1373632,-1.27329258e-14 52.3966912,0.358848 53.4544192,1.075648 C54.5121472,1.792896 55.3292992,2.889152 55.9058752,4.364416 C56.4824512,5.83968 56.7705152,7.89376 56.7705152,10.526208 C56.7705152,13.18688 56.4775232,15.25664 55.8919872,16.735936 C55.3068992,18.21568 54.5188672,19.302976 53.5296832,19.997824 C52.5400512,20.692224 51.2914752,21.039424 49.7844032,21.039424 C48.2777792,21.039424 47.0108352,20.689984 45.9853632,19.990656 C44.9594432,19.291776 44.1557312,18.22912 43.5751232,16.804032 C42.9940672,15.378944 42.7033152,13.349952 42.7033152,10.717056 C42.7033152,7.04032 43.2709312,4.376064 44.4057152,2.723392 C45.6672832,0.907648 47.4238912,-1.27329258e-14 49.6755392,-1.27329258e-14" id="Fill-114" fill="#D2334D"></path>
                            <polygon id="Fill-115" fill="#D2334D" points="57.5563072 4.0341952 59.7219392 4.0341952 61.6994112 7.8471232 63.6674752 4.0341952 65.8062272 4.0341952 62.7042752 10.0436672 62.7042752 14.6329792 60.6725952 14.6329792 60.6725952 10.0436672"></polygon>
                            <polygon id="Fill-116" fill="#D2334D" points="66.2862144 4.0341952 72.0721344 4.0341952 72.0721344 6.0085312 68.2892224 6.0085312 68.2892224 7.9255232 72.0721344 7.9255232 72.0721344 9.8635712 68.2892224 9.8635712 68.2892224 12.6514752 72.0721344 12.6514752 72.0721344 14.6329792 66.2862144 14.6329792"></polygon>
                            <path d="M77.9372608,6.8442752 L76.5148608,10.4829312 L79.3507008,10.4829312 L77.9372608,6.8442752 Z M76.9014848,4.0344192 L78.9475008,4.0344192 L83.0238528,14.6332032 L80.9272128,14.6332032 L80.0979648,12.4500992 L75.7734208,12.4500992 L74.9110208,14.6332032 L72.8139328,14.6332032 L76.9014848,4.0344192 Z" id="Fill-117" fill="#D2334D"></path>
                            <path d="M85.5576512,8.177344 L86.1893312,8.177344 C86.8313152,8.177344 87.2730432,8.09312 87.5145152,7.924672 C87.7559872,7.755776 87.8778432,7.476672 87.8778432,7.085568 C87.8778432,6.854848 87.8173632,6.653696 87.6972992,6.48256 C87.5776832,6.310976 87.4172992,6.188672 87.2165952,6.113856 C87.0154432,6.03904 86.6471872,6.001408 86.1104832,6.001408 L85.5576512,6.001408 L85.5576512,8.177344 Z M83.5398592,4.03424 L85.6777152,4.03424 C86.8483392,4.03424 87.6816192,4.138624 88.1780032,4.34784 C88.6748352,4.556608 89.0740032,4.903808 89.3764032,5.388992 C89.6783552,5.874176 89.8297792,6.448512 89.8297792,7.111104 C89.8297792,7.807744 89.6626752,8.390144 89.3293632,8.858304 C88.9951552,9.326464 88.4920512,9.680832 87.8200512,9.921408 L90.3301952,14.633024 L88.1251392,14.633024 L85.7422272,10.144512 L85.5576512,10.144512 L85.5576512,14.633024 L83.5398592,14.633024 L83.5398592,4.03424 Z" id="Fill-118" fill="#D2334D"></path>
                            <path d="M97.240192,5.4753216 L95.746112,6.7937856 C95.221504,6.0635456 94.687488,5.6988736 94.144064,5.6988736 C93.879296,5.6988736 93.662912,5.7696576 93.494464,5.9116736 C93.326016,6.0527936 93.241344,6.2127296 93.241344,6.3905856 C93.241344,6.5679936 93.301824,6.7359936 93.422336,6.8950336 C93.585856,7.1064896 94.078656,7.5603136 94.901632,8.2565056 C95.671296,8.9007296 96.138112,9.3061696 96.301632,9.4741696 C96.710656,9.8876736 97.000512,10.2823616 97.171648,10.6595776 C97.342336,11.0367936 97.427904,11.4485056 97.427904,11.8951616 C97.427904,12.7647296 97.127296,13.4828736 96.52608,14.0495936 C95.924864,14.6163136 95.140864,14.8994496 94.174528,14.8994496 C93.420096,14.8994496 92.762432,14.7148736 92.201984,14.3448256 C91.641984,13.9752256 91.162176,13.3937216 90.763008,12.6012096 L92.458688,11.5779776 C92.96896,12.5147456 93.555392,12.9833536 94.219776,12.9833536 C94.565632,12.9833536 94.85728,12.8821056 95.092928,12.6805056 C95.328128,12.4789056 95.4464,12.2454976 95.4464,11.9816256 C95.4464,11.7414976 95.357248,11.5013696 95.178944,11.2612416 C95.001088,11.0211136 94.609088,10.6537536 94.002496,10.1587136 C92.848,9.2174656 92.10208,8.4908096 91.765184,7.9791936 C91.428288,7.4675776 91.260288,6.9577536 91.260288,6.4483776 C91.260288,5.7132096 91.540288,5.0828736 92.100288,4.5564736 C92.660736,4.0305216 93.352,3.7675456 94.174528,3.7675456 C94.703616,3.7675456 95.207616,3.8902976 95.685632,4.1353536 C96.164544,4.3804096 96.682432,4.8270656 97.240192,5.4753216" id="Fill-119" fill="#D2334D"></path>
                            <g id="Group" transform="translate(0.000000, 7.616000)" fill="#000000">
                                <path d="M4.03487663,1.23419284 C3.53662989,1.23419284 3.08167411,1.35524716 2.67000926,1.59615326 C2.25874526,1.83746021 1.926848,2.18418863 1.67431747,2.63673937 C1.42218779,3.08929011 1.29592253,3.55707284 1.29592253,4.03928589 C1.29592253,4.61008505 1.47109053,5.09430232 1.82102568,5.49153684 C2.17136168,5.88877137 2.67401768,6.08758905 3.33019621,6.08758905 C4.089792,6.08758905 4.73554863,5.81942568 5.26706526,5.28349979 C5.79818105,4.74757389 6.06393937,4.09620547 6.06393937,3.32979537 C6.06393937,2.69566316 5.87714695,2.18819705 5.50356211,1.80699621 C5.12957642,1.42539453 4.64014821,1.23419284 4.03487663,1.23419284 M4.082176,7.16227078e-15 C5.03738274,7.16227078e-15 5.82583916,0.307045053 6.44714442,0.922337684 C7.06844968,1.53722947 7.37910232,2.31766905 7.37910232,3.26325558 C7.37910232,3.98877979 7.19511579,4.67261642 6.82794442,5.31436463 C6.46037221,5.955712 5.97174568,6.44874779 5.361664,6.79226947 C4.75158232,7.136192 4.05050947,7.30775242 3.25884632,7.30775242 C2.26876632,7.30775242 1.47830568,7.01473684 0.886662737,6.42830484 C0.295420632,5.841472 7.16227078e-14,5.06904926 7.16227078e-14,4.11063579 C7.16227078e-14,3.02234947 0.353141895,2.08758568 1.05942568,1.30554274 C1.84788211,0.434913684 2.85559916,7.16227078e-15 4.082176,7.16227078e-15" id="Fill-120"></path>
                                <polygon id="Fill-121" points="8.20479697 1.98657347 9.44339907 1.98657347 10.2478892 4.84858611 11.898557 1.98657347 13.2738462 1.98657347 10.2887751 7.13298526 9.67508581 7.13298526"></polygon>
                                <path d="M17.9551609,4.00172699 C17.8605622,3.68626425 17.7030312,3.44736236 17.4821672,3.28502131 C17.2617041,3.12268025 16.9951441,3.04130931 16.6828881,3.04130931 C16.3738388,3.04130931 16.0944519,3.12468446 15.8455289,3.29183562 C15.596606,3.45898678 15.4074085,3.69548362 15.2779365,4.00172699 L17.9551609,4.00172699 Z M17.6336856,5.62674088 L18.7452207,6.20275099 C18.4962978,6.53063983 18.165603,6.78918299 17.754339,6.97998383 C17.3426742,7.16998299 16.886115,7.26538341 16.3850624,7.26538341 C15.5998127,7.26538341 14.9809125,7.04492025 14.5283618,6.60319225 C14.075811,6.16186509 13.8493352,5.57543309 13.8493352,4.84349541 C13.8493352,4.00814046 14.1323298,3.30065415 14.6983188,2.72223899 C15.2647087,2.14342299 15.9481445,1.85401499 16.749027,1.85401499 C17.2316409,1.85401499 17.6613437,1.95943646 18.0381352,2.17108109 C18.4149268,2.38232488 18.7119508,2.68977078 18.9296081,3.09301794 C19.1472653,3.49706678 19.2562944,3.9351872 19.2562944,4.40858173 C19.2562944,4.55689331 19.2402607,4.72965625 19.2085942,4.92887478 L15.1031693,4.92887478 C15.1155955,5.28642594 15.2330422,5.57142467 15.4555096,5.78347015 C15.6775761,5.99591646 15.9842203,6.10173878 16.3754422,6.10173878 C16.8484359,6.10173878 17.2677167,5.94340615 17.6336856,5.62674088 L17.6336856,5.62674088 Z" id="Fill-122"></path>
                                <path d="M20.5833223,1.98657347 L21.7088869,1.98657347 L21.6186974,2.68644379 C21.9562065,2.13127747 22.3614579,1.85389474 22.8344515,1.85389474 C22.9478899,1.85389474 23.0661383,1.88435874 23.1891968,1.94488589 L22.7274267,3.09329853 C22.6312246,3.05882611 22.5610772,3.04118905 22.5161829,3.04118905 C22.2700659,3.04118905 22.0500035,3.18388884 21.8563968,3.46928842 C21.6631909,3.754688 21.5104701,4.33109895 21.3982343,5.19852126 L21.1489105,7.13298526 L19.8802452,7.13298526 L20.5833223,1.98657347 Z" id="Fill-123"></path>
                            </g>
                            <g id="Group-2" transform="translate(100.800000, 7.616000)" fill="#000000">
                                <path d="M4.88145516,1.26321381 L3.93065768,2.10538307 C3.53943579,1.60072286 3.17547116,1.34819234 2.83796211,1.34819234 C2.67081095,1.34819234 2.53211958,1.39789676 2.421888,1.4973056 C2.31165642,1.59671444 2.25634021,1.71576455 2.25634021,1.85445592 C2.25634021,1.98392792 2.30644547,2.12702855 2.40745768,2.28496034 C2.50846989,2.44249128 2.81471326,2.79122392 3.32538611,3.32995571 C3.59635537,3.61735949 3.77473011,3.82058644 3.85970863,3.94043823 C4.06493979,4.21782097 4.21204884,4.47756665 4.30223832,4.71847276 C4.39162611,4.95977971 4.43692126,5.20509507 4.43692126,5.45401802 C4.43692126,6.01239107 4.23850442,6.48057465 3.84086905,6.8589696 C3.44363453,7.23736455 2.93456505,7.42656202 2.31325979,7.42656202 C1.36687158,7.42656202 0.596052211,6.97721802 1.2653345e-13,6.07853002 L1.00250611,5.26963065 C1.40655495,5.88452244 1.843072,6.19196834 2.31325979,6.19196834 C2.53692968,6.19196834 2.72532547,6.11941592 2.87844716,5.97431107 C3.031168,5.82960707 3.10772884,5.65443907 3.10772884,5.44920792 C3.10772884,5.28847023 3.06123116,5.12452581 2.96823579,4.95737465 C2.87524042,4.79062434 2.60948211,4.4751616 2.17096084,4.01138728 C1.70758737,3.52276076 1.40294737,3.15358518 1.25824337,2.90466223 C1.06263242,2.56715318 0.964826947,2.2360576 0.964826947,1.91097465 C0.964826947,1.48247444 1.10512168,1.09766602 1.38571116,0.756950232 C1.73885305,0.331255916 2.21545432,0.1188096 2.81471326,0.1188096 C3.63724126,0.1188096 4.32628884,0.500010442 4.88145516,1.26321381" id="Fill-124"></path>
                                <path d="M6.92009802,0 C7.13414771,0 7.31813423,0.0765608421 7.47085507,0.229682526 C7.62397676,0.382403368 7.70013676,0.566389895 7.70013676,0.780439579 C7.70013676,0.994890105 7.62397676,1.17847579 7.47085507,1.33159747 C7.31813423,1.48471916 7.13414771,1.56128 6.92009802,1.56128 C6.70564749,1.56128 6.52206181,1.48471916 6.36894013,1.33159747 C6.21581844,1.17847579 6.13965844,0.994890105 6.13965844,0.780439579 C6.13965844,0.566389895 6.21581844,0.382403368 6.36894013,0.229682526 C6.52206181,0.0765608421 6.70564749,0 6.92009802,0 L6.92009802,0 Z M6.05267571,2.10522274 L7.30330307,2.10522274 L6.60984623,7.25163453 L5.34959865,7.25163453 L6.05267571,2.10522274 Z" id="Fill-125"></path>
                                <path d="M8.73915958,2.10522274 L9.999808,2.10522274 L9.92805726,2.62752 C10.411072,2.19100295 10.9133272,1.972544 11.4340211,1.972544 C11.8789558,1.972544 12.2437221,2.11364042 12.5279192,2.39663495 C12.8121162,2.67922863 12.9540143,3.03477558 12.9540143,3.46407747 C12.9540143,3.66650274 12.9271579,3.96753516 12.8734451,4.36837726 L12.4798181,7.25163453 L11.2191697,7.25163453 L11.6039781,4.43692126 C11.6416573,4.14711242 11.6608977,3.92945516 11.6608977,3.78435032 C11.6608977,3.57631326 11.6015731,3.41637726 11.4829238,3.30414147 C11.3642745,3.19230653 11.19552,3.13618863 10.9770611,3.13618863 C10.7654164,3.13618863 10.5529701,3.20954274 10.3409246,3.35625095 C10.1288792,3.50295916 9.96613726,3.70618611 9.85149642,3.96673347 C9.73765726,4.22647916 9.63343832,4.71470484 9.53843874,5.43060884 L9.29633011,7.25163453 L8.03608253,7.25163453 L8.73915958,2.10522274 Z" id="Fill-126"></path>
                                <path d="M19.4424856,3.16877709 L18.3742413,3.75039899 C18.0716056,3.36599141 17.6651517,3.17438888 17.1544788,3.17438888 C16.811358,3.17438888 16.5071188,3.24734215 16.2421622,3.39405036 C15.9772056,3.54035773 15.7663626,3.75200236 15.6088317,4.02898425 C15.4513007,4.30596615 15.3723348,4.59898173 15.3723348,4.90763015 C15.3723348,5.30406299 15.4965959,5.62233162 15.7455188,5.86163436 C15.9944418,6.10053625 16.3367609,6.22038804 16.7716746,6.22038804 C17.3737395,6.22038804 17.8351087,6.01716109 18.1569849,5.61110804 L19.1498708,6.31298257 C18.8684797,6.64768573 18.5193462,6.91023731 18.1012679,7.09983562 C17.6831896,7.28903309 17.2170102,7.38403267 16.7027298,7.38403267 C15.9014464,7.38403267 15.2697192,7.16356952 14.8075483,6.72184152 C14.3449765,6.28051436 14.1140915,5.69728909 14.1140915,4.97176488 C14.1140915,4.14242257 14.399491,3.43493625 14.970691,2.85010762 C15.541891,2.26527899 16.2770355,1.97266425 17.1761243,1.97266425 C18.1886515,1.97266425 18.9442388,2.37150215 19.4424856,3.16877709" id="Fill-127"></path>
                                <path d="M24.6150723,4.12037625 C24.5204736,3.80491352 24.3625418,3.56601162 24.1416778,3.40367057 C23.9212147,3.24132952 23.6546547,3.15995857 23.3423987,3.15995857 C23.0337502,3.15995857 22.7543633,3.24333373 22.5050395,3.41048488 C22.2561165,3.57763604 22.0673199,3.81413288 21.9374471,4.12037625 L24.6150723,4.12037625 Z M24.2931961,5.74539015 L25.4051321,6.32140025 C25.1558083,6.64928909 24.8251136,6.90783225 24.4138496,7.09863309 C24.0025856,7.28863225 23.5460264,7.38403267 23.044573,7.38403267 C22.2593233,7.38403267 21.6404231,7.16356952 21.1878723,6.72184152 C20.7353216,6.28051436 20.5092467,5.69408236 20.5092467,4.96214467 C20.5092467,4.12678973 20.7922412,3.41930341 21.3582302,2.84088825 C21.9242193,2.26207225 22.6076551,1.97266425 23.4085376,1.97266425 C23.8911515,1.97266425 24.3208542,2.07808573 24.6976458,2.28973036 C25.0744374,2.50097415 25.3718622,2.80842004 25.5895195,3.2116672 C25.8071768,3.61571604 25.915805,4.05383646 25.915805,4.52723099 C25.915805,4.67554257 25.8997713,4.84830552 25.8685056,5.04752404 L21.7626799,5.04752404 C21.775106,5.4050752 21.8929536,5.69007394 22.115421,5.90211941 C22.3370867,6.11456573 22.6441317,6.22038804 23.0353536,6.22038804 C23.5079464,6.22038804 23.9272273,6.06205541 24.2931961,5.74539015 L24.2931961,5.74539015 Z" id="Fill-128"></path>
                                <polygon id="Fill-129" points="31.4701137 0.293576758 33.5328472 0.293576758 32.5868598 7.25139402 31.3121819 7.25139402 32.0966299 1.50893002 31.0568455 1.50893002"></polygon>
                                <path d="M37.1969849,3.37272556 C37.4932072,3.37272556 37.7473411,3.26850661 37.9585849,3.0608704 C38.1698287,2.85243251 38.2752502,2.60350956 38.2752502,2.31289903 C38.2752502,2.03591714 38.1782464,1.80222619 37.9846397,1.61302872 C37.7906321,1.42423208 37.5517302,1.32923251 37.267934,1.32923251 C36.9685049,1.32923251 36.7171769,1.43264977 36.5135491,1.63908345 C36.3099213,1.84551714 36.2085083,2.10045272 36.2085083,2.40308851 C36.2085083,2.67766535 36.3023053,2.90774872 36.4898995,3.09373945 C36.6774936,3.28013103 36.9131887,3.37272556 37.1969849,3.37272556 L37.1969849,3.37272556 Z M36.6482321,7.42644177 L35.6505361,6.75944051 L37.3244527,4.42293187 C37.1573016,4.46421861 37.0061841,4.48426072 36.8706995,4.48426072 C36.3375795,4.48426072 35.8822228,4.28744724 35.503427,3.89341945 C35.1250321,3.49899082 34.9358346,3.01036429 34.9358346,2.42673819 C34.9358346,1.76775377 35.158302,1.21819924 35.6028359,0.778074611 C36.0477706,0.338350821 36.615363,0.118689347 37.3056131,0.118689347 C37.9333319,0.118689347 38.4552283,0.327127242 38.8717032,0.745205558 C39.2877773,1.16288303 39.4958144,1.6747584 39.4958144,2.28002998 C39.4958144,2.52294029 39.4641479,2.75783377 39.4012157,2.9847104 C39.3066169,3.31300008 39.1771449,3.62525608 39.0132005,3.9214784 C38.7201849,4.45780514 38.4175491,4.94482829 38.1052931,5.38334956 L36.6482321,7.42644177 Z" id="Fill-130"></path>
                                <polygon id="Fill-131" points="40.3289647 0.293576758 44.6712872 0.293576758 44.5955281 1.14496539 41.0809445 7.42656202 40.0167087 6.84013002 43.0426658 1.49971065 40.1774464 1.49971065"></polygon>
                                <path d="M46.6966221,4.17244564 C46.399999,4.17244564 46.1462659,4.27666459 45.9350221,4.48510248 C45.7237784,4.69394122 45.6183569,4.94526922 45.6183569,5.23908648 C45.6183569,5.51406417 45.7149598,5.74735427 45.9089674,5.93815512 C46.102975,6.12975764 46.3418769,6.22515806 46.6256731,6.22515806 C46.9251021,6.22515806 47.1764301,6.1217408 47.3800579,5.91490627 C47.5832849,5.70767091 47.6850988,5.45233448 47.6850988,5.14889701 C47.6850988,4.87071259 47.5909009,4.63862501 47.4037076,4.45183259 C47.2161135,4.26544101 46.9804184,4.17244564 46.6966221,4.17244564 L46.6966221,4.17244564 Z M47.2449741,0.118729432 L48.243071,0.790139958 L46.5691544,3.12704943 C46.7359047,3.08255596 46.887423,3.06091048 47.0229076,3.06091048 C47.5560276,3.06091048 48.0113843,3.25772396 48.39018,3.65175175 C48.7681741,4.04618038 48.9577725,4.53480691 48.9577725,5.11803217 C48.9577725,5.77741743 48.7353051,6.32697196 48.2907712,6.76669575 C47.8458365,7.20641954 47.278244,7.42648185 46.5879939,7.42648185 C45.9602752,7.42648185 45.4383788,7.21804396 45.0219038,6.79996564 C44.6058297,6.38228817 44.3977927,5.8704128 44.3977927,5.26514122 C44.3977927,5.02223091 44.4294592,4.78693659 44.4923914,4.56005996 C44.5865893,4.23537785 44.7164621,3.92312185 44.8804066,3.6236928 C45.1734221,3.0905728 45.4760579,2.60515301 45.7883139,2.16663175 L47.2449741,0.118729432 Z" id="Fill-132"></path>
                            </g>
                        </g>
                        <line x1="59.808" y1="19.488" x2="150.527999" y2="19.488" id="Path-101-Copy" stroke="#000000" stroke-width="0.5"></line>
                        <line x1="0.224" y1="19.488" x2="30.016" y2="19.488" id="Path-101-Copy-2" stroke="#000000" stroke-width="0.5"></line>
                    </g>
                    <text id="Professional-Film-De" font-family="Lato-Bold, Lato" font-size="9" font-weight="bold" fill="#383838">
                        <tspan x="26.4685" y="30">Professional Film Developing</tspan>
                    </text>
                </g>
                <g id="Rectangle">
                    <use fill="black" fill-opacity="1" filter="url(#filter-28)" xlink:href="#path-27"></use>
                    <use stroke="#FFFFFF" stroke-width="1" fill="#C12D43" fill-rule="evenodd" xlink:href="#path-27"></use>
                </g>
                <text id="Start-your-Order" font-family="Lato-Bold, Lato" font-size="10" font-weight="bold" fill="#FFFFFF">
                    <tspan x="34.3575" y="153">Start your Order</tspan>
                </text>
                <polygon id="Path-120" fill="url(#linearGradient-2)" points="149.543664 128.404579 160.348558 138 144.600808 145.645742 127.138091 131.385364"></polygon>
                <g id="35mm-icon-copy" transform="translate(127.000000, 91.000000)">
                    <g id="Group-8-Copy" transform="translate(0.000000, 34.104175)">
                        <path d="M11.8264478,9.35114475 C18.3580145,9.35114475 23.6528955,7.87350353 23.6528955,6.05074072 C23.6528955,4.83556551 23.6516421,3.92380025 23.6491353,3.31544493 L0.0182639546,3.21123296 C0.00608798486,4.18328751 0,5.1297901 0,6.05074072 C0,7.87350353 5.29488102,9.35114475 11.8264478,9.35114475 Z" id="Oval" fill="#4F4F4F"></path>
                        <ellipse id="Oval-Copy-3" fill="#22211C" cx="11.8264478" cy="3.30040403" rx="11.8264478" ry="3.30040403"></ellipse>
                    </g>
                    <path d="M34.821953,7.7700001 C36.0371283,7.7700001 37.0222224,8.75509424 37.0222224,9.97026945 L37.0222224,21.8798163 C37.0222226,22.9744321 36.217578,23.9025869 35.1340285,24.0578418 C32.5761107,24.4243496 30.7075036,25.3307785 29.5282071,26.7771285 C28.4339578,28.1191722 27.8891996,29.8494779 27.8939325,31.9680454 C27.8966493,33.1832188 26.9137574,34.1705121 25.6985841,34.1732268 L18.8700002,34.1732323 L19.2878597,7.7700001 L34.821953,7.7700001 Z M22.5436643,30.3331396 L21.0702696,30.3331396 L21.0702696,33.0730977 L22.5436643,33.0730977 L22.5436643,30.3331396 Z M26.4727167,30.3331396 L24.999322,30.3331396 L24.999322,33.0730977 L26.4727167,33.0730977 L26.4727167,30.3331396 Z M22.5436643,8.87013478 L21.0702696,8.87013478 L21.0702696,11.6100928 L22.5436643,11.6100928 L22.5436643,8.87013478 Z M26.4727167,8.87013478 L24.999322,8.87013478 L24.999322,11.6100928 L26.4727167,11.6100928 L26.4727167,8.87013478 Z M30.8929006,8.87013478 L29.419506,8.87013478 L29.419506,11.6100928 L30.8929006,11.6100928 L30.8929006,8.87013478 Z M34.821953,8.87013478 L33.3485584,8.87013478 L33.3485584,11.6100928 L34.821953,11.6100928 L34.821953,8.87013478 Z" id="Combined-Shape" fill="#6E6253"></path>
                    <g id="Rectangle" transform="translate(1.092883, 7.700943)">
                        <mask id="mask-30" fill="white">
                            <use xlink:href="#path-29"></use>
                        </mask>
                        <use id="Mask" fill="#FCCD00" xlink:href="#path-29"></use>
                        <rect fill="#DAA300" mask="url(#mask-30)" x="0.0171172024" y="0.0690573669" width="4.44000006" height="32.1900004"></rect>
                    </g>
                    <path d="M22.7271717,7.70094273 L22.7281064,37.4332115 C21.512339,38.3654865 18.8336464,39.1016557 15.4668215,39.4254979 C15.6061703,39.5339632 15.6061703,28.9591115 15.4668215,7.70094273 L22.7271717,7.70094273 Z" id="Path" fill="#040404"></path>
                    <path d="M6.89800786,28.3998438 L6.89800786,27.0340235 L7.61343756,27.0340235 L7.61343756,26.0237501 L6.89800786,26.0237501 L6.89800786,22.0867188 L5.6319141,22.0867188 L3,26.2448829 L3.05636719,27.0340235 L5.64492191,27.0340235 L5.64492191,28.3998438 L6.89800786,28.3998438 Z M5.64492191,26.0237501 L4.24875002,26.0237501 L5.5625391,23.9381641 L5.64492191,23.7950781 L5.64492191,26.0237501 Z M10.4057813,28.4865626 C11.102422,28.4865626 11.6314064,28.2553126 11.9927345,27.7928126 C12.3540626,27.3303126 12.5347267,26.6625782 12.5347267,25.7896094 L12.5347267,25.7896094 L12.5347267,24.6275782 C12.5260548,23.780625 12.3396095,23.130957 11.9753907,22.6785742 C11.611172,22.2261914 11.0850782,22 10.3971095,22 C9.70914071,22 9.1823243,22.2283594 8.81666023,22.6850781 C8.45099616,23.1417969 8.26816413,23.8109766 8.26816413,24.6926172 L8.26816413,24.6926172 L8.26816413,25.8546485 C8.27683601,26.7016016 8.46328132,27.3519923 8.82750008,27.8058204 C9.19171883,28.2596485 9.71781259,28.4865626 10.4057813,28.4865626 Z M10.4057813,27.4762891 C10.0964845,27.4762891 9.87173837,27.3512696 9.73154306,27.1012305 C9.59134774,26.8511915 9.52125008,26.4689063 9.52125008,25.9543751 L9.52125008,25.9543751 L9.52125008,24.4194532 C9.52992196,23.9367188 9.60435555,23.5818946 9.74455087,23.3549805 C9.88474618,23.1280664 10.1022657,23.0146094 10.3971095,23.0146094 C10.7006251,23.0146094 10.9239259,23.1338477 11.0670118,23.3723242 C11.2100978,23.6108008 11.2816407,23.9916407 11.2816407,24.5148438 L11.2816407,24.5148438 L11.2816407,26.0150782 C11.2758595,26.5093751 11.2050392,26.8764844 11.0691798,27.1164063 C10.9333204,27.3563282 10.7121876,27.4762891 10.4057813,27.4762891 Z M15.500508,28.4865626 C16.1971486,28.4865626 16.726133,28.2553126 17.0874611,27.7928126 C17.4487892,27.3303126 17.6294533,26.6625782 17.6294533,25.7896094 L17.6294533,25.7896094 L17.6294533,24.6275782 C17.6207814,23.780625 17.4343361,23.130957 17.0701174,22.6785742 C16.7058986,22.2261914 16.1798049,22 15.4918361,22 C14.8038673,22 14.2770509,22.2283594 13.9113869,22.6850781 C13.5457228,23.1417969 13.3628908,23.8109766 13.3628908,24.6926172 L13.3628908,24.6926172 L13.3628908,25.8546485 C13.3715626,26.7016016 13.5580079,27.3519923 13.9222267,27.8058204 C14.2864455,28.2596485 14.8125392,28.4865626 15.500508,28.4865626 Z M15.500508,27.4762891 C15.1912111,27.4762891 14.966465,27.3512696 14.8262697,27.1012305 C14.6860744,26.8511915 14.6159767,26.4689063 14.6159767,25.9543751 L14.6159767,25.9543751 L14.6159767,24.4194532 C14.6246486,23.9367188 14.6990822,23.5818946 14.8392775,23.3549805 C14.9794728,23.1280664 15.1969923,23.0146094 15.4918361,23.0146094 C15.7953517,23.0146094 16.0186525,23.1338477 16.1617385,23.3723242 C16.3048244,23.6108008 16.3763674,23.9916407 16.3763674,24.5148438 L16.3763674,24.5148438 L16.3763674,26.0150782 C16.3705861,26.5093751 16.2997658,26.8764844 16.1639064,27.1164063 C16.028047,27.3563282 15.8069142,27.4762891 15.500508,27.4762891 Z" id="400" fill="#000000" fill-rule="nonzero" transform="translate(10.314727, 25.243281) rotate(-90.000000) translate(-10.314727, -25.243281) "></path>
                    <g id="Group-8">
                        <path d="M11.8264478,11.5514141 C18.3580145,11.5514141 23.6528955,10.0737729 23.6528955,8.25101007 C23.6528955,7.03583486 23.6516421,6.1240696 23.6491353,5.51571428 L0.0182639546,5.41150231 C0.00608798486,6.38355686 0,7.33005945 0,8.25101007 C0,10.0737729 5.29488102,11.5514141 11.8264478,11.5514141 Z" id="Oval" fill="#4F4F4F"></path>
                        <ellipse id="Oval-Copy-3" fill="#22211C" cx="11.8264478" cy="5.50067338" rx="11.8264478" ry="3.30040403"></ellipse>
                        <g id="Oval-Copy-6" transform="translate(0.000000, 1.650202)">
                            <mask id="mask-32" fill="white">
                                <use xlink:href="#path-31"></use>
                            </mask>
                            <use id="Mask" fill="#22211C" xlink:href="#path-31"></use>
                            <ellipse fill="#626262" mask="url(#mask-32)" cx="12.1014814" cy="4.95060604" rx="11.0013468" ry="3.30040403"></ellipse>
                        </g>
                        <g id="Group-9" transform="translate(6.600808, 0.000000)" fill="#000000">
                            <path d="M5.3035593,7.34855584 C8.14656662,7.34855584 10.4512794,6.73287201 10.4512794,5.9733875 C10.4512794,5.74451259 10.4075253,4.27838259 10.320017,1.5749975 L0,1.46004202 C0.103892789,3.962616 0.155839183,5.4670645 0.155839183,5.9733875 C0.155839183,6.73287201 2.46055198,7.34855584 5.3035593,7.34855584 Z" id="Oval-Copy-7"></path>
                            <ellipse id="Oval-Copy-5" stroke="#979797" stroke-width="0.555000007" cx="5.10047791" cy="1.37516835" rx="4.95060604" ry="1.37516835"></ellipse>
                        </g>
                    </g>
                </g>
                <line x1="111.616523" y1="149.5" x2="121.963838" y2="149.5" id="Path-28" stroke="#FFFFFF" stroke-linecap="round"></line>
                <polyline id="Path-70" stroke="#FFFFFF" stroke-linecap="round" points="119.116523 147 121.985965 149.5 119.116523 152"></polyline>
            </g>
        </g>
    </g>
</svg>