<?xml version="1.0" encoding="UTF-8"?>
<svg width="31px" height="32px" viewBox="0 0 31 32" version="1.1" xmlns="http://www.w3.org/2000/svg" xmlns:xlink="http://www.w3.org/1999/xlink">
    <title>40yr seal icon</title>
    <g id="Page-1" stroke="none" stroke-width="1" fill="none" fill-rule="evenodd">
        <g id="Icons" transform="translate(-73.000000, -348.000000)" stroke="#7D7D7D">
            <g id="40yr-seal-icon" transform="translate(74.000000, 349.000000)">
                <rect id="Rectangle-Copy" x="10.6815804" y="7.5" width="7" height="11"></rect>
                <path d="M18.2506702,21.2220836 C18.149661,25.1078289 18.1594083,27.1985543 18.2799121,27.49426 C18.6687091,28.1678469 19.2761449,28.1116683 19.723558,27.6592676 C20.1709711,27.2068669 21.1139683,26.3432049 21.6544121,25.7705047 C22.1948559,25.1978044 23.2139539,25.2467899 23.7608125,25.7705047 C24.3076711,26.2942195 25.3783771,27.431406 25.7078931,27.6592676 C26.0374092,27.8871291 26.7787216,28.0264106 27.0472941,27.3397997 C27.2263425,26.8820591 27.2263425,24.4354592 27.0472941,20" id="Path-Copy-2" stroke-width="1.2480612" transform="translate(22.681580, 24.000000) scale(-1, 1) rotate(34.000000) translate(-22.681580, -24.000000) "></path>
                <path d="M2.07171846,21.0604043 C1.96792124,25.0106599 1.97679232,27.1349112 2.09833172,27.433158 C2.48712866,28.1067449 3.09456448,28.0505663 3.5419776,27.5981656 C3.98939071,27.145765 4.93238784,26.282103 5.47283166,25.7094027 C6.01327549,25.1367025 7.03237349,25.1856879 7.57923206,25.7094027 C8.12609063,26.2331176 9.19679663,27.3703041 9.52631268,27.5981656 C9.85582873,27.8260272 10.5971412,27.9653086 10.8657137,27.2786977 C11.0447621,26.8209572 11.0165569,24.5926988 10.7810983,20.5939228" id="Path-Copy-3" stroke-width="1.2480612" transform="translate(6.490862, 24.266410) rotate(34.000000) translate(-6.490862, -24.266410) "></path>
                <path d="M15.092687,24.96 C16.0283342,24.96 17.1395452,23.5530894 18.0116643,23.3423325 C19.1208895,23.0742764 20.2914141,23.7616256 21.2530347,23.1981637 C22.1669894,22.6626317 22.2307711,21.0636414 22.9671661,20.3061698 C23.6503361,19.6034465 25.1506414,19.4873282 25.645236,18.6298945 C26.1391643,17.7736159 25.4557776,16.216107 25.727339,15.2403616 C26.0136478,14.2116275 27.1815804,13.58142 27.1815804,12.4596283 C27.1815804,11.320839 26.0182181,10.6351224 25.7234807,9.59255048 C25.4199683,8.5189387 26.2136022,7.0453084 25.6427667,6.11965043 C25.1164009,5.26610382 23.7396592,5.18084201 23.0234962,4.49117027 C22.2179745,3.71544533 22.0276194,2.0797736 21.0303381,1.56047012 C20.2029923,1.12965532 19.0682355,1.68194214 18.1411462,1.46033551 C17.2774581,1.25388394 16.1116553,0 15.1859016,0 C14.0558147,0 13.5808808,0.928321447 12.4763487,1.35502963 C11.3718165,1.78173782 10.0542457,1.06873268 9.25010247,1.53978503 C8.37517749,2.05230004 8.26341871,3.48639803 7.55032367,4.20314616 C6.79575455,4.96158084 5.42876087,5.15310265 4.89895272,6.09598795 C4.4108354,6.96467718 4.97287627,8.12735711 4.64878553,9.40074335 C4.32469478,10.6741296 3.18158042,11.3496721 3.18158042,12.4155942 C3.18158042,13.4567705 4.24564994,14.1212243 4.49353063,15.0834997 C4.74436975,16.0572599 4.4565327,17.9529278 4.92812088,18.8122993 C5.42929333,19.725582 6.62516542,19.6474714 7.33688677,20.3922009 C8.05345449,21.1420016 8.43944461,22.8598022 9.32881022,23.3974927 C10.1612012,23.9007376 11.4592519,23.0347609 12.4084439,23.317103 C13.4530775,23.6278346 13.9490997,24.96 15.092687,24.96 Z" id="Oval" stroke-width="1.2480612"></path>
                <rect id="Rectangle-Copy-2" x="12.6815804" y="5.5" width="3" height="2"></rect>
                <polyline id="Rectangle-Copy-3" points="17.73993 8.5 21.6815804 8.5 21.6815804 13.5 19.6815804 13.5 19.6815804 16.5 18.069764 16.5"></polyline>
            </g>
        </g>
    </g>
</svg>